<?xml version="1.0" encoding="UTF-8" standalone="no"?>
<svg
   xmlns:svg="http://www.w3.org/2000/svg"
   xmlns="http://www.w3.org/2000/svg"
   width="800.0"
   height="600.0"

>
    <g transform="scale(11.069175036353332, -11.069175036353332)   translate(18.30250839646572,-14.376450198781713)" stroke-width="0.5"  fill="none">
       <!-- hidden lines -->
       <g  stroke="rgb(180,180,180)" fill="none" stroke-dasharray="0.5,0.5" >

       </g>

       <!-- solid lines -->
       <g  stroke="rgb(32,32,32)" fill="none">
			<path d="M37.12310601229374,1.7677669529663693 L37.19079470063057,1.7440684020733497 L37.25491335664612,1.7192912882844344 L37.31530751288194,1.6934953018369598 L37.37183167452574,1.666742587521739 L37.42434966992119,1.6390975949708189 L37.47273497861735,1.6106269233926696 L37.51687103616754,1.5813991611288594 L37.55665151494322,1.5514847204187312 L37.59198058028669,1.5209556677701515 L37.622773121385066,1.4898855503449797 L37.64895495630974,1.4583492187775142 L37.670463010727104,1.4264226468527568 L37.68724546985021,1.3941827484789118 L37.69926190326504,1.3617071923950446 L37.70648336233099,1.329074215060283 L37.70889244992065,1.2963624321753435 " />
			<path d="M2.4748737341529137,12.374368670764582 L2.545969386831972,12.396931566876857 L2.6203007281987185,12.418304452215375 L2.7779468304868047,12.457277224841913 L2.946293822874013,12.49091165953912 L3.1237204317958285,12.518883838314409 L3.3085179420170823,12.540924373795024 L3.4989066524937518,12.556821003575704 L3.693053015866888,12.566420634421682 L3.8890872965260086,12.569630816640217 L4.085121577185129,12.566420634421682 L4.279267940558266,12.556821003575704 L4.469656651034935,12.540924373795024 L4.654454161256189,12.518883838314409 L4.831880770178004,12.49091165953912 L5.0002277625652125,12.457277224841915 L5.157873864853299,12.418304452215375 L5.232205206220044,12.396931566876857 L5.3033008588990915,12.374368670764587 " />
			<path d="M-16.495689014324224,5.774705379690138 L-16.49327992673457,5.807417162575083 L-16.486058467668617,5.840050139909845 L-16.474042034253785,5.872525695993713 L-16.457259575130685,5.904765594367557 L-16.43575152071331,5.936692166292314 L-16.409569685788643,5.968228497859779 L-16.378777144690265,5.9992986152849515 L-16.343448079346796,6.029827667933531 L-16.30366760057111,6.059742108643659 L-16.259531543020934,6.088969870907469 L-16.21114623432477,6.117440542485619 L-16.158628238929314,6.145085535036539 L-16.102104077285514,6.17183824935176 L-16.041709921049698,6.197634235799235 L-15.977591265034143,6.222411349588151 L-15.909902576697325,6.2461099004811675 " />
			<path d="M2.474873734152915,12.374368670764586 L-15.909902576697316,6.246109900481171 " />
			<path d="M37.12310601229376,1.7677669529663689 L5.303300858899107,12.374368670764584 " />
			<path d="M33.58757210636101,-6.010407640085655 L33.68910513886624,-5.974859813746126 L33.785283122889574,-5.937694143062753 L33.8758743572433,-5.89900016339154 L33.960660599709,-5.85887109191871 L34.03943759280218,-5.8174036030923295 L34.112015555846426,-5.7746975957251045 L34.1782196421717,-5.730855952329389 L34.23789036033522,-5.685984291264197 L34.29088395835043,-5.640190712291328 L34.33707276999799,-5.59358553615357 L34.376345522384995,-5.546281038802371 L34.40860760401105,-5.4983911809152355 L34.433781292695706,-5.4500313333544685 L34.451805942817955,-5.4013179992286675 L34.46263813141688,-5.3523685332265245 L34.46625176280136,-5.303300858899111 " />
			<path d="M34.46625176280136,-5.303300858899107 L34.46263813141688,-5.254233184571689 L34.451805942817955,-5.205283718569547 L34.433781292695706,-5.156570384443746 L34.40860760401105,-5.108210536882979 L34.376345522384995,-5.060320678995843 L34.33707276999799,-5.013016181644645 L34.29088395835043,-4.966411005506887 L34.23789036033522,-4.920617426534017 L34.17821964217169,-4.875745765468825 L34.112015555846426,-4.83190412207311 L34.03943759280218,-4.789198114705886 L33.960660599709,-4.747730625879505 L33.8758743572433,-4.707601554406674 L33.785283122889574,-4.668907574735462 L33.68910513886624,-4.631741904052089 L33.587572106361016,-4.596194077712563 " />
			<path d="M6.010407640085652,4.5961940777125605 L5.903764161067064,4.630038421880972 L5.792267149016944,4.6620977498887495 L5.676185210003308,4.692294828006657 L5.555797995584816,4.7205569088285575 L5.431395529105674,4.746815906526285 L5.303277507004003,4.7710085608743675 L5.171752576816856,4.793076589649456 L5.03713759362128,4.812966829037299 L4.8997568567026715,4.830631361709033 L4.759941328289399,4.846027632258221 L4.618027836235804,4.859118549720557 L4.474358262574395,4.869872576929243 L4.329278719892093,4.878263806490794 L4.183138717514691,4.88427202319821 L4.036290319508263,4.887882752731185 L3.8890872965260095,4.889087296526013 L3.741884273543756,4.887882752731185 L3.5950358755373286,4.88427202319821 L3.448895873159926,4.878263806490794 L3.3038163304776242,4.869872576929243 L3.160146756816215,4.859118549720557 L3.01823326476262,4.846027632258221 L2.8784177363493475,4.830631361709033 L2.7410369994307393,4.8129668290372996 L2.606422016235163,4.793076589649456 L2.474897086048016,4.7710085608743675 L2.3467790639463444,4.746815906526285 L2.2223765974672034,4.720556908828558 L2.10198938304871,4.692294828006657 L1.9859074440350741,4.66209774988875 L1.874410431984956,4.630038421880973 L1.7677669529663858,4.596194077712567 " />
			<path d="M-12.374368670764582,-1.5320646925708528 L-12.21256685606627,-1.5821667578907896 L-12.040146240682239,-1.6281654428649501 L-11.858041186866231,-1.6698114766340124 L-11.667238537682932,-1.7068791757326602 L-11.468772269219908,-1.7391676670878358 L-11.263717887381599,-1.766501976567326 L-11.053186599629633,-1.7887339771797452 L-10.838319293253324,-1.8057431917875357 L-10.620280352802586,-1.8174374459830154 L-10.400251350187192,-1.8237533675894777 L-10.179424641636201,-1.8246567300805094 L-9.958996906216257,-1.8201426380565022 L-9.740162660924035,-1.8102355537732464 L-9.524107787495147,-1.7949891645788494 L-9.312003106008264,-1.774486091977342 L-9.10499803010967,-1.748837443895592 L-8.904214338241118,-1.7181822125798205 L-8.710740094625272,-1.6826865213845774 L-8.525623752951402,-1.642542724535889 L-8.349868474714,-1.5979683647470422 L-8.184426692993737,-1.5492049943357722 L-8.03019495114006,-1.4965168662313235 L-7.888009044325119,-1.440189501964932 L-7.821676732447154,-1.410755768840744 L-7.758639490297302,-1.3805281444039075 L-7.698982747889143,-1.3495475940627744 L-7.642787353878804,-1.3178561036140894 L-7.590129465996377,-1.2854966223425452 L-7.5410804478346085,-1.2525130048145874 L-7.495706772134765,-1.2189499514453535 L-7.454069930700721,-1.184852947919293 L-7.416226351063374,-1.1502682035465681 L-7.382227320008312,-1.1152425886387678 L-7.352118914070382,-1.07982357098882 L-7.325941937089353,-1.0440591515411755 L-7.30373186491129,-1.0079977993394462 L-7.285518797310596,-0.9716883858396671 L-7.27132741719787,-0.9351801186781885 L-7.261176957168868,-0.8985224749839726 L-7.25508117343989,-0.8617651343256642 L-7.253048327204938,-0.8249579113843098 " />
			<path d="M-7.253048327204938,-0.8249579113843054 L-7.25508117343989,-0.7881506884429467 L-7.261176957168868,-0.7513933477846383 L-7.27132741719787,-0.7147357040904223 L-7.285518797310596,-0.6782274369289437 L-7.303731864911289,-0.6419180234291646 L-7.325941937089352,-0.6058566712274355 L-7.352118914070382,-0.5700922517797908 L-7.382227320008312,-0.5346732341298432 L-7.416226351063374,-0.4996476192220427 L-7.454069930700721,-0.46506287484931763 L-7.495706772134765,-0.43096587132325737 L-7.541080447834608,-0.3974028179540235 L-7.590129465996376,-0.3644192004260657 L-7.642787353878804,-0.33205971915452137 L-7.698982747889143,-0.30036822870583657 L-7.758639490297302,-0.26938767836470334 L-7.821676732447154,-0.23916005392786688 L-7.888009044325118,-0.20972632080367892 L-8.03019495114006,-0.1533989565372872 L-8.184426692993737,-0.10071082843283852 L-8.349868474714,-0.05194745802156864 L-8.5256237529514,-0.007373098232722031 L-8.710740094625272,0.03277069861596671 L-8.904214338241118,0.06826638981120992 L-9.104998030109668,0.09892162112698122 L-9.312003106008262,0.12457026920873104 L-9.524107787495144,0.14507334181023845 L-9.740162660924033,0.1603197310046358 L-9.958996906216255,0.17022681528789152 L-10.1794246416362,0.17474090731189895 L-10.400251350187192,0.1738375448208671 L-10.620280352802585,0.16752162321440478 L-10.83831929325332,0.15582736901892535 L-11.053186599629633,0.13881815441113465 L-11.263717887381597,0.11658615379871562 L-11.468772269219906,0.08925184431922562 L-11.66723853768293,0.05696335296404975 L-11.85804118686623,0.01989565386540193 L-12.040146240682237,-0.021750379903660022 L-12.21256685606627,-0.06774906487782073 L-12.37436867076456,-0.1178511301977514 " />
			<path d="M19.445436482630054,-10.724452847995972 L19.546969515135288,-10.688905021656442 L19.643147499158623,-10.651739350973068 L19.733738733512347,-10.613045371301856 L19.818524975978047,-10.572916299829025 L19.89730196907123,-10.531448811002646 L19.96987993211548,-10.488742803635422 L20.036084018440743,-10.444901160239706 L20.095754736604274,-10.400029499174513 L20.148748334619476,-10.354235920201642 L20.19493714626704,-10.307630744063886 L20.234209898654044,-10.260326246712687 L20.266471980280105,-10.21243638882555 L20.291645668964755,-10.164076541264784 L20.309670319087004,-10.115363207138982 L20.32050250768593,-10.06641374113684 L20.324116139070412,-10.017346066809427 " />
			<path d="M20.324116139070412,-10.017346066809422 L20.322938038730765,-9.989323825409905 L20.319404662992095,-9.96132359268513 L20.31351878696851,-9.933367360024215 L20.30528503342837,-9.905477084258626 L20.29470986916357,-9.877674670417262 L20.281801599910516,-9.849981954522251 L20.26657036382681,-9.822420686438928 L20.24902812352871,-9.795012512793484 L20.207067545249597,-9.740741417212153 L20.156051662580374,-9.687339132423972 L20.09614071559492,-9.634973394153818 L20.02752288362226,-9.583808682350474 L19.95041369417833,-9.534005704557753 L19.86505534599744,-9.485720891134656 L19.771715948289955,-9.439105903910107 L19.670688678615516,-9.394307159815572 L19.562290862017008,-9.351465370991813 L19.446862974307667,-9.31071510281429 L19.32476757264196,-9.272184351225476 L19.196388156729373,-9.23599414070163 L19.062127964267916,-9.20225814411685 L18.922408704380963,-9.1710823256984 L18.7776692330356,-9.142564608194744 L18.62836417460305,-9.116794565301767 L18.474962493890764,-9.09385314031322 L18.317946023131444,-9.073812391879127 L18.157807948555675,-9.056735267670714 L17.995051261301853,-9.042675406662777 L17.830187177529037,-9.031676970654521 L17.663733532695137,-9.023774505558043 L17.496213155044003,-9.018992832890186 L17.328152223410267,-9.017346971808545 L17.160078614499984,-9.018842091936525 L16.992520244838342,-9.02347349712565 L16.826003412592264,-9.031226640206084 L16.66105114447628,-9.04207716867905 " />
			<path d="M16.66105114447625,-9.042077168679054 L16.417207007977638,-9.064134196462032 L16.17979573667273,-9.092952522872137 L15.950501330260522,-9.128327734476372 L15.839408776918098,-9.148397529222459 L15.730950214096703,-9.17000890870747 L15.625318056028036,-9.193123532602419 L15.522699702673973,-9.217700393701588 L15.423277207263936,-9.243695890672601 L15.327226953317773,-9.271063905408718 L15.234719341727192,-9.299755884846062 L15.145918488450846,-9.329720927100666 L15.060981933359383,-9.360905871772527 L14.980060360747029,-9.393255394256437 L14.903297332005504,-9.426712103892285 L14.830829030934545,-9.461216645780722 L14.762784022140858,-9.496707806083528 L14.699283022954159,-9.533122620621906 L14.640438689264892,-9.570396486579998 L14.586355415663606,-9.60846327711549 L14.537129150236531,-9.647255458673968 L14.492847224345944,-9.68670421079887 L14.453588197697293,-9.726739548224547 L14.41942171896795,-9.767290445035739 L14.39040840224484,-9.808284960673287 L14.366599719490175,-9.849650367562479 L14.348037909226026,-9.891313280137636 L14.334755901599799,-9.933199785034011 L14.326777259963494,-9.975235572216057 L14.324116139070412,-10.017346066809415 " />
			<path d="M14.324116139070412,-10.017346066809424 L14.327729770454894,-10.066413741136843 L14.338561959053822,-10.115363207138985 L14.35658660917607,-10.164076541264786 L14.38176029786072,-10.212436388825553 L14.41402237948678,-10.260326246712689 L14.453295131873785,-10.307630744063886 L14.499483943521351,-10.354235920201644 L14.552477541536552,-10.400029499174513 L14.612148259700081,-10.444901160239706 L14.678352346025347,-10.488742803635422 L14.750930309069597,-10.531448811002646 L14.829707302162777,-10.572916299829027 L14.914493544628478,-10.613045371301856 L15.005084778982201,-10.651739350973068 L15.101262763005534,-10.688905021656442 L15.202795795510767,-10.72445284799597 " />
			<path d="M33.58757210636101,-4.5961940777125605 L33.44977235894426,-4.553067854746624 L33.30409856141774,-4.51291985760813 L33.151129000078875,-4.475909463185775 L32.991470923470274,-4.442183592918553 L32.825758131764275,-4.411876129556661 L32.6546484607445,-4.38510738568252 L32.478821170372505,-4.361983626101776 L32.298974248306074,-4.3425966460002305 L32.11582163907352,-4.327023406541328 L31.930090409903524,-4.315325729350773 L31.74251786446122,-4.307550051101089 L31.55384861594846,-4.303727239170358 L31.36483163118709,-4.303872469106926 L31.17621725741954,-4.307985164386506 L30.988754243629486,-4.316048998700826 L30.80318676820723,-4.328031960768735 " />
			<path d="M30.8031867682072,-4.328031960768737 L30.55934263170859,-4.350088988551716 L30.32193136040368,-4.378907314961822 L30.092636953991473,-4.414282526566056 L29.98154440064905,-4.434352321312143 L29.873085837827652,-4.455963700797153 L29.767453679758987,-4.479078324692104 L29.664835326404926,-4.503655185791271 L29.565412830994887,-4.529650682762286 L29.469362577048724,-4.557018697498403 L29.376854965458143,-4.585710676935745 L29.288054112181797,-4.6156757191903495 L29.203117557090334,-4.646860663862212 L29.12219598447798,-4.67921018634612 L29.045432955736455,-4.712666895981968 L28.972964654665496,-4.747171437870405 L28.904919645871807,-4.7826625981732125 L28.84141864668511,-4.81907741271159 L28.78257431299584,-4.856351278669682 L28.728491039394555,-4.894418069205174 L28.679264773967482,-4.933210250763651 L28.634982848076895,-4.972659002888555 L28.595723821428244,-5.012694340314231 L28.5615573426989,-5.053245237125423 L28.532544025975792,-5.09423975276297 L28.508735343221126,-5.1356051596521635 L28.490173532956977,-5.177268072227321 L28.47689152533075,-5.219154577123695 L28.468912883694443,-5.261190364305741 L28.466251762801363,-5.3033008588990995 " />
			<path d="M28.466251762801363,-5.303300858899108 L28.468284609036314,-5.340108081840468 L28.47438039276529,-5.376865422498776 L28.484530852794293,-5.413523066192991 L28.49872223290702,-5.45003133335447 L28.516935300507715,-5.486340746854249 L28.539145372685777,-5.522402099055978 L28.565322349666808,-5.558166518503623 L28.59543075560474,-5.5935855361535705 L28.6294297866598,-5.628611151061371 L28.667273366297145,-5.663195895434097 L28.70891020773119,-5.697292898960156 L28.754283883431032,-5.7308559523293905 L28.803332901592803,-5.763839569857348 L28.85599078947523,-5.796199051128892 L28.91218618348557,-5.827890541577577 L28.97184292589373,-5.85887109191871 L29.03488016804358,-5.889098716355547 L29.101212479921546,-5.918532449479734 L29.243398386736487,-5.974859813746126 L29.397630128590162,-6.027547941850575 L29.563071910310427,-6.076311312261844 L29.738827188547827,-6.120885672050691 L29.9239435302217,-6.16102946889938 L30.117417773837545,-6.196525160094623 L30.318201465706093,-6.2271803914103945 L30.52520654160469,-6.252829039492144 L30.73731122309157,-6.273332112093652 L30.95336609652046,-6.288578501288049 L31.17220034181268,-6.298485585571305 L31.392628077232626,-6.302999677595312 L31.613454785783617,-6.30209631510428 L31.83348378839901,-6.295780393497818 L32.05152272884975,-6.284086139302338 L32.26639003522606,-6.267076924694548 L32.47692132297802,-6.244844924082129 L32.68197570481633,-6.217510614602639 L32.88044197327935,-6.185222123247463 L33.07124462246265,-6.1481544241488155 L33.25334967627866,-6.106508390379753 L33.425770291662694,-6.060509705405592 L33.587572106360994,-6.010407640085659 " />
			<path d="M1.767766952966367,4.5961940777125605 L1.6662339204611305,4.560646251373031 L1.5700559364377975,4.523480580689657 L1.4794647020840737,4.484786601018445 L1.3946784596183734,4.444657529545615 L1.315901466525193,4.403190040719235 L1.2433235034809447,4.3604840333520105 L1.1771194171556796,4.316642389956295 L1.1174486989921495,4.271770728891103 L1.0644551009769474,4.225977149918234 L1.0182662893293832,4.1793719737804755 L0.9789935369423777,4.1320674764292775 L0.9467314553163182,4.0841776185421415 L0.9215577666316661,4.0358177709813745 L0.9035331165094185,3.987104436855573 L0.892700927910492,3.9381549708534305 L0.889087296526009,3.889087296526022 " />
			<path d="M0.889087296526009,3.8890872965260126 L0.892700927910492,3.8400196221985943 L0.9035331165094185,3.7910701561964517 L0.9215577666316666,3.7423568220706507 L0.9467314553163177,3.693996974509884 L0.9789935369423772,3.6461071166227486 L1.0182662893293823,3.59880261927155 L1.064455100976947,3.5521974431337924 L1.117448698992149,3.506403864160923 L1.1771194171556791,3.4615322030957305 L1.2433235034809442,3.4176905597000147 L1.315901466525193,3.3749845523327906 L1.3946784596183734,3.3335170635064104 L1.479464702084074,3.2933879920335793 L1.5700559364377984,3.254694012362367 L1.6662339204611323,3.217528341678994 L1.7677669529663667,3.181980515339465 L1.8744104319849542,3.1481361711710534 L1.9859074440350726,3.1160768431632757 L2.101989383048709,3.0858797650453678 L2.222376597467202,3.0576176842234672 L2.346779063946344,3.0313586865257403 L2.4748970860480157,3.0071660321776577 L2.6064220162351623,2.985098003402569 L2.7410369994307393,2.9652077640147256 L2.878417736349349,2.947543231342992 L3.018233264762622,2.9321469607938035 L3.160146756816217,2.9190560433314685 L3.3038163304776242,2.908302016122782 L3.4488958731599237,2.8999107865612315 L3.595035875537327,2.893902569853816 L3.7418842735437545,2.89029184032084 L3.889087296526009,2.8890872965260126 L4.036290319508263,2.89029184032084 L4.183138717514691,2.8939025698538154 L4.329278719892094,2.8999107865612315 L4.474358262574394,2.908302016122782 L4.6180278362358,2.9190560433314685 L4.759941328289395,2.9321469607938035 L4.899756856702669,2.947543231342992 L5.037137593621278,2.9652077640147256 L5.171752576816855,2.9850980034025696 L5.303277507004002,3.0071660321776577 L5.431395529105674,3.0313586865257403 L5.555797995584815,3.0576176842234672 L5.6761852100033074,3.0858797650453673 L5.792267149016945,3.1160768431632757 L5.903764161067064,3.1481361711710534 L6.010407640085651,3.181980515339465 L6.111940672590886,3.217528341678994 L6.20811865661422,3.254694012362367 L6.298709890967944,3.2933879920335793 L6.3834961334336455,3.3335170635064104 L6.462273126526825,3.3749845523327906 L6.534851089571074,3.4176905597000147 L6.601055175896338,3.46153220309573 L6.660725894059869,3.5064038641609225 L6.713719492075072,3.552197443133793 L6.759908303722636,3.59880261927155 L6.79918105610964,3.6461071166227486 L6.8314431377357,3.693996974509884 L6.8566168264203515,3.7423568220706502 L6.8746414765426,3.7910701561964517 L6.885473665141526,3.8400196221985947 L6.889087296526009,3.889087296526008 " />
			<path d="M6.889087296526009,3.8890872965260126 L6.885473665141526,3.9381549708534305 L6.8746414765426,3.987104436855573 L6.8566168264203515,4.0358177709813745 L6.8314431377357,4.084177618542141 L6.79918105610964,4.132067476429277 L6.759908303722636,4.179371973780475 L6.713719492075072,4.225977149918232 L6.660725894059869,4.271770728891102 L6.601055175896339,4.316642389956295 L6.534851089571074,4.3604840333520105 L6.462273126526825,4.403190040719235 L6.3834961334336455,4.444657529545615 L6.298709890967945,4.484786601018445 L6.208118656614221,4.523480580689657 L6.111940672590887,4.560646251373031 L6.010407640085662,4.596194077712557 " />
			<path d="M9.475230867899738,-2.687005768508881 L9.369784992417834,-2.7257863002544287 L9.27625033811414,-2.7678252608645852 L9.234235941797778,-2.7899412549053215 L9.195527694840845,-2.812717792167841 L9.160218848800705,-2.836100001978889 L9.128394465780154,-2.8600315545469917 L9.10013121350538,-2.8844547966658554 L9.07549718062668,-2.9093108906059926 L9.054551712686944,-2.934539955859965 L9.037345269153045,-2.960081213399771 L9.023919301854564,-2.9858731320988467 L9.014306155122698,-3.0118535769659407 L9.008528987869937,-3.03795995883375 L9.006601717798214,-3.0641293851417015 " />
			<path d="M9.006601717798214,-3.0641293851417064 L9.008528987869937,-3.090298811449663 L9.014306155122698,-3.116405193317472 L9.023919301854564,-3.142385638184566 L9.037345269153045,-3.1681775568836414 L9.054551712686942,-3.1937188144234474 L9.075497180626678,-3.21894787967742 L9.10013121350538,-3.243803973617557 L9.128394465780154,-3.268227215736421 L9.160218848800703,-3.2921587683045237 L9.195527694840845,-3.315540978115572 L9.234235941797778,-3.3383175153780913 L9.27625033811414,-3.3604335094188276 L9.369784992417834,-3.402472470028984 L9.475230867899738,-3.4412530017745318 L9.59157246313638,-3.476401626935166 L9.71768934496685,-3.507579845036397 L9.852366938876617,-3.5344873927941625 L9.99430822601407,-3.556865135814393 L10.142146234191074,-3.5744975641988845 L10.294457202572408,-3.5872148680234295 L10.449774293270917,-3.5948945727002117 L10.606601717798213,-3.5974627184750396 L10.76342914232551,-3.5948945727002117 L10.918746233024018,-3.5872148680234295 L11.071057201405353,-3.5744975641988845 L11.218895209582357,-3.556865135814393 L11.36083649671981,-3.5344873927941625 L11.495514090629577,-3.5075798450363975 L11.621630972460046,-3.476401626935166 L11.737972567696689,-3.4412530017745318 L11.843418443178592,-3.402472470028984 L11.936953097482286,-3.3604335094188276 L11.978967493798649,-3.3383175153780913 L12.017675740755582,-3.315540978115572 L12.052984586795722,-3.2921587683045237 L12.084808969816272,-3.268227215736421 L12.113072222091047,-3.243803973617557 L12.137706254969748,-3.21894787967742 L12.158651722909484,-3.1937188144234474 L12.175858166443382,-3.168177556883642 L12.189284133741863,-3.1423856381845665 L12.198897280473728,-3.116405193317472 L12.20467444772649,-3.090298811449663 L12.206601717798213,-3.0641293851417086 " />
			<path d="M12.206601717798213,-3.0641293851417064 L12.205517533139572,-3.0444988662396484 L12.202266448484117,-3.024894951221884 L12.196852869801983,-3.005344207918302 L12.189284133741863,-2.9858731320988467 L12.167725125859858,-2.947275390391376 L12.137706254969748,-2.9093108906059935 L12.099390195933797,-2.87218536565638 L12.052984586795723,-2.8361000019788896 L11.998740903572152,-2.8012503492858216 L11.936953097482286,-2.7678252608645852 L11.867956002000785,-2.7360058701653722 L11.792123518366148,-2.7059646092232965 L11.709866589377521,-2.6778642742342575 L11.621630972460046,-2.6518571433482467 L11.527894824066767,-2.628084151460862 L11.429166108507369,-2.6066741264748945 L11.325979845245584,-2.587743091170765 L11.218895209582358,-2.57139363446902 L11.108492502436441,-2.557714355492087 L10.995370005643437,-2.5467793834379497 L10.880140739814696,-2.5386479758676046 L10.763429142325512,-2.533364197583201 L10.645867683434874,-2.530956681837064 L10.528093438874345,-2.5314384751656145 L10.410744637479468,-2.534806966689061 L10.29445720257241,-2.5410439022599833 L10.179861305838376,-2.5501154833841384 L10.067577952370662,-2.5619725503774284 L9.95821561539023,-2.5765508487664897 L9.852366938876617,-2.5937713774892504 L9.750605525978859,-2.6135408170085292 L9.65348283061032,-2.6357520350186956 L9.561525169072171,-2.6602846670049147 L9.475230867899747,-2.6870057685088775 " />
			<path d="M15.20279579551077,-10.724452847995972 L15.309439274529357,-10.758297192164383 L15.420936286579476,-10.79035652017216 L15.537018225593112,-10.820553598290068 L15.657405440011605,-10.848815679111969 L15.781807906490748,-10.875074676809696 L15.909925928592418,-10.899267331157779 L16.041450858779566,-10.921335359932867 L16.17606584197514,-10.94122559932071 L16.313446578893753,-10.958890131992444 L16.453262107307026,-10.974286402541633 L16.59517559936062,-10.987377320003967 L16.73884517302203,-10.998131347212654 L16.883924715704328,-11.006522576774204 L17.03006471808173,-11.01253079348162 L17.17691311608816,-11.016141523014596 L17.324116139070412,-11.017346066809424 L17.471319162052666,-11.016141523014596 L17.618167560059096,-11.01253079348162 L17.764307562436496,-11.006522576774204 L17.909387105118796,-10.998131347212654 L18.053056678780205,-10.987377320003967 L18.1949701708338,-10.974286402541633 L18.33478569924707,-10.958890131992444 L18.472166436165683,-10.94122559932071 L18.60678141936126,-10.921335359932867 L18.738306349548406,-10.899267331157779 L18.866424371650076,-10.875074676809696 L18.99082683812922,-10.848815679111969 L19.111214052547712,-10.820553598290068 L19.22729599156135,-10.79035652017216 L19.338793003611467,-10.758297192164383 L19.445436482630043,-10.724452847995975 " />
			<path d="M-12.37436867076458,-0.11785113019775761 L-12.475901703269816,-0.1533989565372873 L-12.57207968729315,-0.19056462722066003 L-12.662670921646875,-0.22925860689187205 L-12.747457164112575,-0.2693876783647031 L-12.826234157205754,-0.3108551671910834 L-12.898812120250003,-0.3535611745583074 L-12.965016206575267,-0.39740281795402277 L-13.024686924738798,-0.4422744790192149 L-13.077680522754001,-0.48806805799208447 L-13.123869334401565,-0.5346732341298419 L-13.16314208678857,-0.5819777314810403 L-13.19540416841463,-0.6298675893681766 L-13.220577857099281,-0.6782274369289438 L-13.238602507221529,-0.7269407710547447 L-13.249434695820455,-0.7758902370568872 L-13.253048327204938,-0.8249579113842962 " />
			<path d="M-13.253048327204938,-0.8249579113843054 L-13.249434695820455,-0.8740255857117234 L-13.238602507221529,-0.922975051713866 L-13.220577857099281,-0.9716883858396671 L-13.19540416841463,-1.0200482334004337 L-13.16314208678857,-1.0679380912875693 L-13.123869334401565,-1.1152425886387678 L-13.077680522754001,-1.1618477647765255 L-13.024686924738798,-1.2076413437493951 L-12.965016206575267,-1.2525130048145874 L-12.898812120250003,-1.296354648210303 L-12.826234157205754,-1.3390606555775268 L-12.747457164112575,-1.3805281444039075 L-12.662670921646873,-1.4206572158767385 L-12.572079687293149,-1.4593511955479508 L-12.475901703269816,-1.4965168662313237 L-12.374368670764584,-1.5320646925708519 " />
			<path d="M37.70889244992065,-3.4176827757349795 L37.70648336233099,-3.384970992850034 L37.69926190326504,-3.352338015515272 L37.68724546985021,-3.319862459431405 L37.670463010727104,-3.2876225610575607 L37.64895495630974,-3.2556959891328034 L37.622773121385066,-3.224159657565338 L37.59198058028669,-3.1930895401401664 L37.55665151494322,-3.1625604874915862 L37.51687103616754,-3.132646046781458 L37.47273497861736,-3.1034182845176477 L37.42434966992119,-3.0749476129394986 L37.37183167452574,-3.047302620388578 L37.31530751288194,-3.0205499060733576 L37.25491335664612,-2.9947539196258823 L37.19079470063056,-2.969976805836967 L37.123106012293746,-2.94627825494395 " />
			<path d="M35.70889244992065,-5.303300858899107 L35.778284620428586,-5.277898825834969 L35.84750961911974,-5.248015369370459 L35.91640067690886,-5.213722481369679 L35.98479182920359,-5.175102776403529 L36.052518315727696,-5.132249292723954 L36.119416977443,-5.085265268126664 L36.185326649613806,-5.034263891242226 L36.25008855006684,-4.979368028854749 L36.31354666171145,-4.920709929905033 L36.37554810839839,-4.858430906891292 L36.435943523211925,-4.792680995434964 L36.49458740830775,-4.723618592831757 L36.551338485430065,-4.651410076458696 L36.60606003626329,-4.576229402956443 L36.6586202317984,-4.498257689152515 L36.70889244992065,-4.4176827757349795 L36.75675558045324,-4.334698774727789 L36.80209431692241,-4.249505601857909 L36.844799434340786,-4.1623084949408256 L36.88476805234001,-4.073317519444663 L36.92190388301846,-3.9827470624240817 L36.956117462907315,-3.8908153160430827 L36.987326368495886,-3.7977437519309656 L37.015455414797025,-3.7037565876377823 L37.04043683647437,-3.6090802464746186 L37.062210451095,-3.5139428120400047 L37.08072380411414,-3.4185734787465485 L37.0959322952428,-3.323201999671521 L37.10779928589373,-3.2280581330615696 L37.11629618744703,-3.133371088824975 L37.12140253012262,-3.0393689763449094 L37.12310601229374,-2.9462782549439646 " />
			<path d="M36.34134798195432,-5.3150493718360075 L36.26701801310927,-5.336286435712932 L36.190813885303506,-5.351080920216004 L36.11299148835535,-5.359383146173494 L36.03381214615355,-5.361165235107514 L35.95354173914417,-5.356421202848611 L35.872449811516724,-5.34516697963033 L35.79080866608768,-5.327440356596245 L35.708892449920654,-5.303300858899108 " />
			<path d="M37.12310601229374,-2.9462782549439472 L37.12310601229374,1.7677669529663698 " />
			<path d="M5.303300858899105,7.660323462854265 L5.232205206220046,7.68288635896654 L5.1578738648533,7.704259244305058 L5.000227762565213,7.743232016931597 L4.831880770178005,7.776866451628804 L4.65445416125619,7.804838630404092 L4.469656651034936,7.826879165884706 L4.279267940558267,7.842775795665387 L4.08512157718513,7.852375426511365 L3.8890872965260095,7.855585608729901 L3.693053015866889,7.852375426511365 L3.498906652493752,7.842775795665387 L3.308517942017083,7.826879165884707 L3.123720431795829,7.804838630404092 L2.946293822874014,7.776866451628804 L2.7779468304868056,7.743232016931597 L2.6203007281987194,7.704259244305058 L2.545969386831974,7.68288635896654 L2.4748737341529266,7.66032346285427 " />
			<path d="M3.889087296526009,5.303300858899107 L3.8196951260180687,5.3287028919632435 L3.7504701273269174,5.358586348427754 L3.681579069537797,5.392879236428533 L3.613187917243066,5.431498941394684 L3.5454614307189587,5.474352425074258 L3.4785627690036516,5.521336449671549 L3.412653096832848,5.572337826555986 L3.3478911963798117,5.6272336889434635 L3.2844330847352077,5.68589178789318 L3.2224316380482625,5.74817081090692 L3.162036223234729,5.81392072236325 L3.103392338138907,5.882983124966455 L3.046641261016589,5.955191641339517 L2.991919710183372,6.030372314841769 L2.9393595146482543,6.108344028645698 L2.889087296526009,6.188918942063234 L2.8412241659934185,6.271902943070424 L2.7958854295242515,6.357096115940303 L2.7531803121058664,6.444293222857388 L2.7132116941066498,6.533284198353551 L2.6760758634282,6.623854655374131 L2.641862283539337,6.71578640175513 L2.6106533779507677,6.808857965867247 L2.582524331649632,6.90284513016043 L2.557542909972283,6.997521471323594 L2.535769295351656,7.092658905758208 L2.5172559423325147,7.188028239051664 L2.502047451203861,7.283399718126692 L2.4901804605529305,7.378543584736644 L2.481683558999626,7.473230628973238 L2.4765772163240314,7.567232741453304 L2.4748737341529132,7.660323462854248 " />
			<path d="M5.303300858899104,7.660323462854266 L5.301597376727987,7.567232741453305 L5.296491034052391,7.473230628973239 L5.287994132499087,7.3785435847366445 L5.276127141848156,7.2833997181266925 L5.2609186507195025,7.188028239051666 L5.242405297700362,7.092658905758209 L5.220631683079734,6.997521471323595 L5.195650261402386,6.902845130160432 L5.16752121510125,6.808857965867248 L5.136312309512681,6.715786401755131 L5.102098729623817,6.623854655374132 L5.064962898945368,6.5332841983535515 L5.024994280946151,6.444293222857389 L4.982289163527766,6.357096115940305 L4.9369504270585995,6.271902943070425 L4.889087296526009,6.188918942063235 L4.838815078403764,6.108344028645699 L4.786254882868646,6.03037231484177 L4.731533332035429,5.955191641339518 L4.6747822549131115,5.882983124966456 L4.616138369817288,5.81392072236325 L4.555742955003755,5.74817081090692 L4.493741508316809,5.685891787893179 L4.4302833966722055,5.627233688943464 L4.36552149621917,5.572337826555987 L4.299611824048367,5.52133644967155 L4.23271316233306,5.474352425074259 L4.164986675808953,5.431498941394685 L4.096595523514222,5.392879236428534 L4.027704465725102,5.358586348427755 L3.9584794670339516,5.328702891963244 L3.8890872965260224,5.303300858899112 " />
			<path d="M2.474873734152915,7.660323462854265 L2.474873734152915,12.374368670764582 " />
			<path d="M5.303300858899105,12.374368670764582 L5.303300858899105,7.660323462854265 " />
			<path d="M-14.495689014324224,-0.8249579113843057 L-14.577605230491258,-0.8490974090814449 L-14.6592463759203,-0.8668240321155296 L-14.740338303547752,-0.8780782553338102 L-14.82060871055713,-0.8828222875927128 L-14.899788052758922,-0.881040198658694 L-14.97761044970708,-0.8727379727012046 L-15.053814577512851,-0.8579434881981318 L-15.128144546357888,-0.8367064243212106 " />
			<path d="M-15.90990257669732,1.532064692570853 L-15.908199094526202,1.4389739711698915 L-15.903092751850608,1.3449718586898256 L-15.894595850297303,1.2502848144532313 L-15.882728859646372,1.1551409478432793 L-15.867520368517718,1.059769468768252 L-15.849007015498577,0.964400135474796 L-15.827233400877951,0.8692627010401819 L-15.802251979200602,0.7745863598770183 L-15.774122932899466,0.6805991955838351 L-15.742914027310896,0.5875276314717177 L-15.708700447422034,0.4955958850907187 L-15.671564616743584,0.4050254280701382 L-15.631595998744366,0.31603445257397556 L-15.588890881325982,0.2288373456568913 L-15.543552144856815,0.14364417278701191 L-15.495689014324224,0.06066017177982108 L-15.445416796201979,-0.01991474163771434 L-15.392856600666862,-0.09788645544164298 L-15.338135049833644,-0.1730671289438952 L-15.281383972711327,-0.24527564531695667 L-15.222740087615504,-0.31433804792016407 L-15.16234467280197,-0.380087959376493 L-15.100343226115024,-0.4423669823902341 L-15.03688511447042,-0.5010250813399493 L-14.972123214017385,-0.5559209437274262 L-14.906213541846581,-0.6069223206118637 L-14.839314880131274,-0.6539063452091538 L-14.771588393607168,-0.696759828888728 L-14.703197241312436,-0.7353795338548794 L-14.634306183523316,-0.7696724218556581 L-14.565081184832167,-0.7995558783201684 L-14.495689014324237,-0.8249579113843015 " />
			<path d="M-15.909902576697318,1.5320646925708528 L-15.977591265034143,1.5083661416778331 L-16.041709921049698,1.4835890278889179 L-16.102104077285514,1.4577930414414433 L-16.158628238929314,1.4310403271262224 L-16.21114623432477,1.4033953345753023 L-16.259531543020934,1.374924662997153 L-16.30366760057111,1.3456969007333428 L-16.343448079346796,1.315782460023214 L-16.378777144690268,1.2852534073746338 L-16.409569685788643,1.254183289949462 L-16.43575152071331,1.2226469583819966 L-16.457259575130685,1.1907203864572395 L-16.474042034253785,1.1584804880833952 L-16.486058467668617,1.126004931999528 L-16.49327992673457,1.0933719546647664 L-16.495689014324224,1.0606601717798265 " />
			<path d="M-15.909902576697316,6.24610990048117 L-15.909902576697316,1.532064692570853 " />
			<path d="M17.324116139070412,-11.43155962918252 L17.406032355237446,-11.455699126879658 L17.48767350066649,-11.473425749913742 L17.56876542829394,-11.484679973132023 L17.64903583530332,-11.489424005390926 L17.72821517750511,-11.487641916456907 L17.80603757445327,-11.479339690499417 L17.88224170225904,-11.464545205996345 L17.956571671104076,-11.443308142119424 " />
			<path d="M16.691660607036738,-11.44330814211942 L16.765990575881787,-11.464545205996345 L16.842194703687554,-11.479339690499417 L16.920017100635715,-11.487641916456907 L16.999196442837505,-11.489424005390926 L17.079466849846884,-11.484679973132023 L17.160558777474336,-11.473425749913742 L17.242199922903378,-11.455699126879658 L17.324116139070405,-11.431559629182521 " />
			<path d="M17.324116139070412,-11.431559629182518 L19.445436482630054,-10.72445284799597 " />
			<path d="M33.587572106361,-6.010407640085651 L35.70889244992064,-5.303300858899103 " />
			<path d="M19.445436482630054,-10.72445284799597 L33.587572106361,-6.010407640085651 " />
			<path d="M5.303300858899107,7.660323462854267 L37.12310601229376,-2.946278254943948 " />
			<path d="M6.010407640085647,4.59619407771256 L3.8890872965260037,5.3033008588991075 " />
			<path d="M33.58757210636101,-4.59619407771256 L6.010407640085647,4.59619407771256 " />
			<path d="M35.708892449920654,-5.3033008588991075 L33.58757210636101,-4.59619407771256 " />
			<path d="M15.202795795510774,-10.724452847995973 L17.32411613907042,-11.43155962918252 " />
			<path d="M-12.374368670764586,-1.5320646925708532 L15.202795795510774,-10.724452847995973 " />
			<path d="M-14.49568901432423,-0.8249579113843053 L-12.374368670764586,-1.5320646925708532 " />
			<path d="M-15.909902576697316,1.5320646925708536 L2.474873734152915,7.660323462854269 " />
			<path d="M-12.374368670764582,-0.11785113019775828 L-14.495689014324224,-0.824957911384306 " />
			<path d="M1.7677669529663653,4.5961940777125605 L-12.37436867076458,-0.11785113019775784 " />
			<path d="M3.8890872965260073,5.303300858899108 L1.7677669529663653,4.5961940777125605 " />
			<path d="M36.34134798195432,-5.3150493718360075 L36.45853287723392,-5.271877811252432 L36.5727949088715,-5.221476705600216 L36.683688566825474,-5.164042569840213 L36.790781474413436,-5.099799340864173 L36.89365607415783,-5.028997504360142 L36.991911255851235,-4.951913118163535 L37.085163920493464,-4.868846735901899 L37.1730504740025,-4.780122235130044 L37.25522824487544,-4.68608555452472 L37.33137682027177,-4.587103345062508 L37.40119929530976,-4.4835615404400215 L37.46442343070475,-4.3758638523103865 L37.5208027142358,-4.2644301962030955 L37.57011732190196,-4.14969505426461 L37.61217497502067,-4.032105781203423 L37.6468116899263,-3.9121208600447295 L37.67389241734592,-3.7902081144955595 L37.693311568959174,-3.6668428848904013 L37.70499342908942,-3.542506174829336 L37.70889244992065,-3.4176827757349764 " />
			<path d="M37.708892449920654,-3.4176827757349795 L37.708892449920654,1.2963624321753375 " />
			<path d="M-16.495689014324224,1.0606601717798214 L-16.491789993492997,0.9358367726854628 L-16.480108133362755,0.8115000626243979 L-16.460688981749495,0.6881348330192407 L-16.433608254329883,0.5662220874700717 L-16.39897153942425,0.44623716631137833 L-16.356913886305538,0.3286478932501927 L-16.307599278639373,0.2139127513117085 L-16.25121999510833,0.10247909520441778 L-16.18799585971334,-0.0052185929252168695 L-16.11817338467535,-0.10876039754770295 L-16.04202480927902,-0.20774260700991443 L-15.959847038406085,-0.3017792876152374 L-15.871960484897048,-0.3905037883870923 L-15.778707820254821,-0.47357017064872897 L-15.680452638561414,-0.5506545568453345 L-15.577578038817025,-0.6214563933493664 L-15.470485131229061,-0.6856996223254057 L-15.359591473275087,-0.7431337580854103 L-15.245329441637512,-0.7935348637376272 L-15.128144546357914,-0.8367064243212021 " />
			<path d="M-16.495689014324224,1.0606601717798216 L-16.495689014324224,5.774705379690139 " />
			<path d="M16.691660607036738,-11.44330814211942 L16.803675350956254,-11.477040038086344 L16.917470671613856,-11.504165093981454 L17.032657242681754,-11.524590507233066 L17.14884097796673,-11.53824639666251 L17.26562437969168,-11.545086041567622 L17.382607898449145,-11.545086041567622 L17.499391300174096,-11.53824639666251 L17.615575035459074,-11.524590507233066 L17.73076160652697,-11.504165093981452 L17.84455692718457,-11.477040038086344 L17.95657167110409,-11.44330814211942 " />
			<path d="M17.95657167110409,-11.44330814211942 L36.34134798195433,-5.315049371836008 " />
			<path d="M-15.1281445463579,-0.8367064243212061 L16.691660607036738,-11.44330814211942 " />

       </g>
    </g>
    
</svg>
