<?xml version="1.0" encoding="UTF-8" standalone="no"?>
<svg
   xmlns:svg="http://www.w3.org/2000/svg"
   xmlns="http://www.w3.org/2000/svg"
   width="450.0"
   height="338.0"

><g transform="translate(0,338) scale(1,-1)">
    <g transform="scale(6.226410957948749, -6.226410957948749)   translate(19.70781236035355,-8.71068635080407)" stroke-width="0.5"  fill="none">
       <!-- hidden lines -->
       <g  stroke="rgb(180,180,180)" fill="none" stroke-dasharray="0.5,0.5" >

       </g>

       <!-- solid lines -->
       <g  stroke="rgb(32,32,32)" fill="none">
			<path d="M2.7577164466275335,-10.865874204233283 L2.652270571145629,-10.827093672487734 L2.5587359168419366,-10.785054711877578 L2.5167215205255737,-10.762938717836843 L2.4780132735686413,-10.740162180574323 L2.4427044275284997,-10.716779970763275 L2.410880044507951,-10.692848418195172 L2.3826167922331765,-10.668425176076308 L2.357982759354475,-10.643569082136171 L2.337037291414739,-10.618340016882199 L2.3198308478808407,-10.592798759342392 L2.3064048805823596,-10.567006840643316 L2.296791733850494,-10.541026395776223 L2.291014566597733,-10.514920013908412 L2.289087296526009,-10.488750587600462 " />
			<path d="M2.289087296526009,-10.488750587600457 L2.291014566597733,-10.462581161292501 L2.296791733850494,-10.43647477942469 L2.3064048805823596,-10.410494334557598 L2.3198308478808403,-10.384702415858522 L2.3370372914147386,-10.359161158318717 L2.357982759354475,-10.333932093064744 L2.3826167922331756,-10.309075999124605 L2.41088004450795,-10.284652757005743 L2.4427044275284997,-10.26072120443764 L2.4780132735686413,-10.237338994626592 L2.5167215205255737,-10.214562457364071 L2.5587359168419366,-10.192446463323336 L2.65227057114563,-10.150407502713179 L2.757716446627533,-10.111626970967631 L2.874058041864176,-10.076478345806997 L3.0001749236946456,-10.045300127705765 L3.1348525176044126,-10.018392579948001 L3.276793804741865,-9.99601483692777 L3.4246318129188693,-9.978382408543279 L3.576942781300204,-9.965665104718735 L3.732259871998712,-9.957985400041952 L3.889087296526009,-9.955417254267124 L4.045914721053306,-9.957985400041952 L4.201231811751814,-9.965665104718735 L4.353542780133148,-9.978382408543279 L4.501380788310152,-9.99601483692777 L4.643322075447605,-10.018392579948001 L4.7779996693573725,-10.045300127705765 L4.904116551187842,-10.076478345806997 L5.020458146424485,-10.111626970967631 L5.125904021906388,-10.150407502713179 L5.219438676210082,-10.192446463323336 L5.261453072526445,-10.214562457364071 L5.300161319483377,-10.237338994626592 L5.335470165523518,-10.260721204437639 L5.367294548544068,-10.284652757005743 L5.3955578008188425,-10.309075999124605 L5.420191833697543,-10.333932093064744 L5.44113730163728,-10.359161158318717 L5.458343745171177,-10.384702415858522 L5.4717697124696585,-10.410494334557598 L5.481382859201524,-10.43647477942469 L5.487160026454285,-10.462581161292501 L5.489087296526009,-10.488750587600455 " />
			<path d="M5.489087296526009,-10.488750587600457 L5.488003111867369,-10.508381106502515 L5.484752027211913,-10.52798502152028 L5.479338448529779,-10.547535764823861 L5.4717697124696585,-10.567006840643316 L5.450210704587655,-10.605604582350788 L5.420191833697544,-10.64356908213617 L5.381875774661592,-10.680694607085783 L5.335470165523518,-10.716779970763273 L5.281226482299948,-10.751629623456342 L5.219438676210082,-10.785054711877578 L5.15044158072858,-10.81687410257679 L5.074609097093944,-10.846915363518866 L4.992352168105317,-10.875015698507905 L4.904116551187842,-10.901022829393916 L4.8103804027945625,-10.9247958212813 L4.711651687235164,-10.946205846267269 L4.60846542397338,-10.965136881571398 L4.501380788310153,-10.981486338273143 L4.390978081164237,-10.995165617250077 L4.277855584371233,-11.006100589304214 L4.162626318542491,-11.014231996874559 L4.0459147210533075,-11.019515775158961 L3.9283532621626702,-11.021923290905098 L3.810579017602141,-11.021441497576548 L3.693230216207264,-11.018073006053102 L3.5769427813002053,-11.011836070482179 L3.462346884566172,-11.002764489358025 L3.3500635310984577,-10.990907422364735 L3.240701194118026,-10.976329123975674 L3.134852517604413,-10.959108595252912 L3.0330911047066538,-10.939339155733634 L2.935968409338116,-10.917127937723468 L2.844010747799966,-10.892595305737249 L2.7577164466275432,-10.865874204233286 " />
			<path d="M-11.384419177103414,-6.151828996322965 L-11.489865052585317,-6.113048464577417 L-11.583399706889011,-6.07100950396726 L-11.625414103205374,-6.048893509926524 L-11.664122350162305,-6.0261169726640045 L-11.699431196202447,-6.002734762852956 L-11.731255579222998,-5.978803210284854 L-11.759518831497772,-5.95437996816599 L-11.784152864376473,-5.929523874225852 L-11.80509833231621,-5.90429480897188 L-11.822304775850107,-5.878753551432074 L-11.835730743148588,-5.852961632732998 L-11.845343889880454,-5.826981187865904 L-11.851121057133215,-5.800874805998095 L-11.853048327204938,-5.774705379690143 " />
			<path d="M-11.853048327204938,-5.774705379690139 L-11.851121057133215,-5.7485359533821825 L-11.845343889880454,-5.722429571514373 L-11.835730743148588,-5.696449126647279 L-11.822304775850107,-5.670657207948204 L-11.80509833231621,-5.645115950408398 L-11.784152864376473,-5.6198868851544255 L-11.759518831497772,-5.595030791214288 L-11.731255579222998,-5.570607549095424 L-11.699431196202447,-5.546675996527322 L-11.664122350162307,-5.523293786716273 L-11.625414103205374,-5.500517249453754 L-11.583399706889011,-5.478401255413018 L-11.489865052585317,-5.436362294802861 L-11.384419177103414,-5.397581763057313 L-11.268077581866772,-5.362433137896679 L-11.141960700036302,-5.331254919795448 L-11.007283106126534,-5.304347372037682 L-10.865341818989082,-5.2819696290174525 L-10.717503810812078,-5.26433720063296 L-10.565192842430744,-5.251619896808416 L-10.409875751732235,-5.2439401921316335 L-10.253048327204938,-5.241372046356806 L-10.096220902677642,-5.2439401921316335 L-9.940903811979133,-5.251619896808416 L-9.7885928435978,-5.26433720063296 L-9.640754835420795,-5.2819696290174525 L-9.498813548283342,-5.304347372037682 L-9.364135954373575,-5.331254919795448 L-9.238019072543105,-5.362433137896679 L-9.121677477306463,-5.397581763057313 L-9.01623160182456,-5.436362294802861 L-8.922696947520866,-5.478401255413018 L-8.880682551204503,-5.500517249453754 L-8.84197430424757,-5.523293786716273 L-8.80666545820743,-5.546675996527322 L-8.77484107518688,-5.570607549095424 L-8.746577822912105,-5.595030791214288 L-8.721943790033404,-5.6198868851544255 L-8.700998322093668,-5.645115950408398 L-8.68379187855977,-5.670657207948204 L-8.670365911261289,-5.696449126647279 L-8.660752764529423,-5.722429571514373 L-8.654975597276662,-5.7485359533821825 L-8.653048327204939,-5.774705379690136 " />
			<path d="M-8.653048327204939,-5.774705379690139 L-8.65413251186358,-5.794335898592196 L-8.657383596519034,-5.813939813609961 L-8.662797175201169,-5.833490556913543 L-8.670365911261289,-5.852961632732998 L-8.691924919143293,-5.89155937444047 L-8.721943790033404,-5.929523874225852 L-8.760259849069357,-5.966649399175465 L-8.806665458207428,-6.002734762852956 L-8.860909141431,-6.037584415546023 L-8.922696947520866,-6.07100950396726 L-8.991694043002369,-6.102828894666473 L-9.067526526637003,-6.132870155608549 L-9.14978345562563,-6.160970490597588 L-9.238019072543105,-6.1869776214835985 L-9.331755220936385,-6.210750613370983 L-9.430483936495783,-6.232160638356951 L-9.533670199757568,-6.25109167366108 L-9.640754835420793,-6.267441130362825 L-9.75115754256671,-6.281120409339758 L-9.864280039359715,-6.2920553813938955 L-9.979509305188456,-6.300186788964241 L-10.09622090267764,-6.305470567248644 L-10.213782361568278,-6.307878082994781 L-10.331556606128807,-6.307396289666231 L-10.448905407523684,-6.304027798142784 L-10.565192842430742,-6.297790862571862 L-10.679788739164776,-6.288719281447707 L-10.79207209263249,-6.276862214454416 L-10.901434429612921,-6.262283916065355 L-11.007283106126534,-6.245063387342595 L-11.109044519024293,-6.2252939478233165 L-11.206167214392831,-6.20308272981315 L-11.29812487593098,-6.178550097826931 L-11.384419177103403,-6.151828996322967 " />
			<path d="M30.334880912902886,-1.6734860488081622 L30.229435037420984,-1.6347055170626141 L30.135900383117292,-1.5926665564524578 L30.093885986800927,-1.5705505624117218 L30.055177739843995,-1.5477740251492023 L30.019868893803853,-1.524391815338154 L29.988044510783304,-1.5004602627700516 L29.95978125850853,-1.4760370206511877 L29.93514722562983,-1.4511809267110505 L29.914201757690094,-1.425951861457078 L29.896995314156193,-1.400410603917272 L29.883569346857712,-1.374618685218196 L29.873956200125846,-1.3486382403511024 L29.868179032873087,-1.322531858483293 L29.86625176280136,-1.2963624321753415 " />
			<path d="M29.86625176280136,-1.2963624321753366 L29.868179032873087,-1.2701930058673803 L29.873956200125846,-1.244086623999571 L29.883569346857712,-1.218106179132477 L29.896995314156193,-1.1923142604334016 L29.914201757690094,-1.1667730028935959 L29.93514722562983,-1.1415439376396233 L29.95978125850853,-1.1166878436994858 L29.988044510783304,-1.092264601580622 L30.019868893803853,-1.0683330490125194 L30.055177739843995,-1.044950839201471 L30.093885986800927,-1.0221743019389515 L30.135900383117292,-1.0000583078982155 L30.229435037420984,-0.9580193472880589 L30.334880912902886,-0.9192388155425112 L30.45122250813953,-0.8840901903818768 L30.57733938997,-0.8529119722806457 L30.712016983879767,-0.8260044245228806 L30.85395827101722,-0.8036266815026503 L31.001796279194224,-0.7859942531181584 L31.154107247575556,-0.7732769492936137 L31.309424338274066,-0.7655972446168315 L31.466251762801363,-0.7630290988420032 L31.62307918732866,-0.7655972446168315 L31.778396278027166,-0.7732769492936137 L31.930707246408502,-0.7859942531181584 L32.07854525458551,-0.8036266815026503 L32.22048654172296,-0.8260044245228806 L32.35516413563273,-0.8529119722806456 L32.481281017463196,-0.8840901903818768 L32.59762261269984,-0.9192388155425112 L32.70306848818174,-0.9580193472880589 L32.79660314248544,-1.0000583078982155 L32.8386175388018,-1.0221743019389518 L32.87732578575873,-1.044950839201471 L32.91263463179887,-1.0683330490125194 L32.94445901481942,-1.0922646015806219 L32.9727222670942,-1.116687843699486 L32.9973562999729,-1.1415439376396233 L33.01830176791263,-1.1667730028935959 L33.03550821144653,-1.1923142604334014 L33.048934178745014,-1.2181061791324768 L33.05854732547688,-1.244086623999571 L33.06432449272964,-1.2701930058673805 L33.066251762801365,-1.2963624321753342 " />
			<path d="M33.066251762801365,-1.2963624321753366 L33.06516757814272,-1.3159929510773947 L33.06191649348727,-1.3355968660951592 L33.05650291480514,-1.355147609398741 L33.048934178745014,-1.374618685218196 L33.02737517086301,-1.4132164269256673 L32.9973562999729,-1.4511809267110498 L32.95904024093694,-1.4883064516606634 L32.91263463179887,-1.5243918153381537 L32.8583909485753,-1.5592414680312214 L32.79660314248544,-1.5926665564524578 L32.72760604700393,-1.6244859471516708 L32.6517735633693,-1.6545272080937463 L32.56951663438067,-1.6826275430827857 L32.481281017463196,-1.7086346739687963 L32.38754486906991,-1.7324076658561811 L32.28881615351052,-1.7538176908421486 L32.185629890248734,-1.7727487261462782 L32.07854525458551,-1.7890981828480228 L31.96814254743959,-1.8027774618249561 L31.855020050646587,-1.8137124338790933 L31.739790784817846,-1.8218438414494387 L31.62307918732866,-1.8271276197338417 L31.505517728438026,-1.8295351354799791 L31.387743483877493,-1.8290533421514286 L31.270394682482618,-1.8256848506279821 L31.15410724757556,-1.8194479150570597 L31.039511350841526,-1.8103763339329046 L30.927227997373812,-1.7985192669396146 L30.81786566039338,-1.7839409685505532 L30.712016983879767,-1.7667204398277927 L30.61025557098201,-1.7469510003085138 L30.513132875613472,-1.7247397822983475 L30.42117521407532,-1.7002071503121285 L30.334880912902896,-1.6734860488081655 " />
			<path d="M16.192745289171935,3.040559159102155 L16.087299413690033,3.0793396908477026 L15.99376475938634,3.121378651457859 L15.951750363069976,3.1434946454985955 L15.913042116113044,3.1662711827611147 L15.877733270072904,3.189653392572163 L15.845908887052353,3.2135849451402656 L15.817645634777579,3.2380081872591293 L15.793011601898879,3.2628642811992665 L15.772066133959143,3.288093346453239 L15.754859690425244,3.313634603993045 L15.741433723126763,3.3394265226921207 L15.731820576394897,3.3654069675592146 L15.726043409142136,3.391513349427024 L15.724116139070413,3.4176827757349755 " />
			<path d="M15.724116139070413,3.4176827757349804 L15.726043409142136,3.4438522020429367 L15.731820576394897,3.469958583910746 L15.741433723126763,3.49593902877784 L15.754859690425244,3.5217309474769154 L15.772066133959141,3.5472722050167214 L15.793011601898877,3.5725012702706938 L15.817645634777579,3.597357364210831 L15.845908887052353,3.621780606329695 L15.877733270072902,3.6457121588977977 L15.913042116113044,3.669094368708846 L15.951750363069976,3.6918709059713652 L15.99376475938634,3.7139869000121015 L16.087299413690033,3.756025860622258 L16.192745289171935,3.7948063923678057 L16.30908688440858,3.82995501752844 L16.43520376623905,3.861133235629671 L16.569881360148816,3.8880407833874364 L16.71182264728627,3.9104185264076667 L16.859660655463273,3.9280509547921585 L17.011971623844605,3.9407682586167034 L17.167288714543115,3.9484479632934857 L17.324116139070412,3.9510161090683136 L17.48094356359771,3.9484479632934857 L17.636260654296215,3.9407682586167034 L17.78857162267755,3.9280509547921585 L17.936409630854556,3.9104185264076667 L18.078350917992008,3.8880407833874364 L18.213028511901776,3.8611332356296715 L18.339145393732245,3.82995501752844 L18.45548698896889,3.7948063923678057 L18.56093286445079,3.756025860622258 L18.654467518754483,3.7139869000121015 L18.696481915070848,3.6918709059713652 L18.73519016202778,3.669094368708846 L18.770499008067922,3.6457121588977977 L18.80232339108847,3.621780606329695 L18.830586643363247,3.597357364210831 L18.855220676241945,3.5725012702706938 L18.87616614418168,3.5472722050167214 L18.893372587715582,3.521730947476916 L18.906798555014063,3.4959390287778405 L18.91641170174593,3.469958583910746 L18.92218886899869,3.4438522020429367 L18.924116139070414,3.4176827757349826 " />
			<path d="M18.924116139070414,3.4176827757349804 L18.923031954411773,3.3980522568329223 L18.919780869756316,3.378448341815158 L18.914367291074182,3.358897598511576 L18.906798555014063,3.3394265226921207 L18.88523954713206,3.30082878098465 L18.855220676241945,3.2628642811992674 L18.816904617205996,3.225738756249654 L18.770499008067922,3.1896533925721635 L18.71625532484435,3.1548037398790956 L18.654467518754487,3.121378651457859 L18.585470423272984,3.089559260758646 L18.509637939638345,3.0595179998165705 L18.427381010649718,3.0314176648275315 L18.339145393732245,3.0054105339415207 L18.245409245338966,2.981637542054136 L18.146680529779566,2.9602275170681684 L18.043494266517783,2.941296481764039 L17.936409630854556,2.924947025062294 L17.82600692370864,2.911267746085361 L17.712884426915636,2.9003327740312237 L17.597655161086895,2.8922013664608786 L17.48094356359771,2.886917588176475 L17.363382104707075,2.884510072430338 L17.245607860146542,2.8849918657588884 L17.128259058751667,2.888360357282335 L17.01197162384461,2.8945972928532573 L16.897375727110575,2.9036688739774124 L16.78509237364286,2.9155259409707024 L16.67573003666243,2.9301042393597636 L16.569881360148816,2.9473247680825243 L16.468119947251058,2.967094207601803 L16.37099725188252,2.9893054256119695 L16.279039590344368,3.0138380575981887 L16.192745289171945,3.0405591591021515 " />
			<path d="M37.12310601229374,-1.7677669529663693 L37.19079470063057,-1.7440684020733497 L37.25491335664612,-1.7192912882844344 L37.31530751288194,-1.6934953018369598 L37.37183167452574,-1.666742587521739 L37.42434966992119,-1.6390975949708189 L37.47273497861735,-1.6106269233926696 L37.51687103616754,-1.5813991611288594 L37.55665151494322,-1.5514847204187312 L37.59198058028669,-1.5209556677701515 L37.622773121385066,-1.4898855503449797 L37.64895495630974,-1.4583492187775142 L37.670463010727104,-1.4264226468527568 L37.68724546985021,-1.3941827484789118 L37.69926190326504,-1.3617071923950446 L37.70648336233099,-1.329074215060283 L37.70889244992065,-1.2963624321753435 " />
			<path d="M37.70889244992065,-1.2963624321753375 L37.70648336233099,-1.2636506492903923 L37.69926190326504,-1.2310176719556305 L37.68724546985021,-1.198542115871763 L37.670463010727104,-1.1663022174979187 L37.64895495630974,-1.1343756455731615 L37.622773121385066,-1.102839314005696 L37.59198058028669,-1.071769196580524 L37.55665151494322,-1.0412401439319443 L37.51687103616754,-1.0113257032218161 L37.47273497861736,-0.9820979409580057 L37.42434966992119,-0.9536272693798564 L37.37183167452574,-0.9259822768289361 L37.31530751288194,-0.8992295625137152 L37.25491335664612,-0.8734335760662405 L37.19079470063056,-0.8486564622773253 L37.123106012293746,-0.8249579113843064 " />
			<path d="M2.4748737341529137,-12.374368670764582 L2.545969386831972,-12.396931566876857 L2.6203007281987185,-12.418304452215375 L2.7779468304868047,-12.457277224841913 L2.946293822874013,-12.49091165953912 L3.1237204317958285,-12.518883838314409 L3.3085179420170823,-12.540924373795024 L3.4989066524937518,-12.556821003575704 L3.693053015866888,-12.566420634421682 L3.8890872965260086,-12.569630816640217 L4.085121577185129,-12.566420634421682 L4.279267940558266,-12.556821003575704 L4.469656651034935,-12.540924373795024 L4.654454161256189,-12.518883838314409 L4.831880770178004,-12.49091165953912 L5.0002277625652125,-12.457277224841915 L5.157873864853299,-12.418304452215375 L5.232205206220044,-12.396931566876857 L5.3033008588990915,-12.374368670764587 " />
			<path d="M-15.90990257669732,-5.303300858899107 L-15.977591265034143,-5.326999409792125 L-16.041709921049698,-5.351776523581041 L-16.102104077285514,-5.377572510028516 L-16.158628238929314,-5.4043252243437365 L-16.21114623432477,-5.431970216894657 L-16.259531543020934,-5.460440888472806 L-16.30366760057111,-5.489668650736617 L-16.343448079346796,-5.519583091446744 L-16.378777144690265,-5.5501121440953245 L-16.409569685788643,-5.581182261520496 L-16.43575152071331,-5.612718593087962 L-16.457259575130685,-5.644645165012719 L-16.474042034253785,-5.676885063386563 L-16.486058467668617,-5.709360619470431 L-16.49327992673457,-5.741993596805193 L-16.495689014324224,-5.774705379690135 " />
			<path d="M-16.495689014324224,-5.774705379690138 L-16.49327992673457,-5.807417162575083 L-16.486058467668617,-5.840050139909845 L-16.474042034253785,-5.872525695993713 L-16.457259575130685,-5.904765594367557 L-16.43575152071331,-5.936692166292314 L-16.409569685788643,-5.968228497859779 L-16.378777144690265,-5.9992986152849515 L-16.343448079346796,-6.029827667933531 L-16.30366760057111,-6.059742108643659 L-16.259531543020934,-6.088969870907469 L-16.21114623432477,-6.117440542485619 L-16.158628238929314,-6.145085535036539 L-16.102104077285514,-6.17183824935176 L-16.041709921049698,-6.197634235799235 L-15.977591265034143,-6.222411349588151 L-15.909902576697325,-6.2461099004811675 " />
			<path d="M18.738329701443508,5.303300858899107 L18.66723404876445,5.325863755011381 L18.592902707397702,5.3472366403499 L18.43525660510962,5.386209412976439 L18.266909612722408,5.419843847673645 L18.08948300380059,5.447816026448933 L17.904685493579336,5.469856561929548 L17.714296783102668,5.485753191710229 L17.520150419729532,5.495352822556207 L17.324116139070412,5.498563004774742 L17.128081858411292,5.495352822556207 L16.933935495038156,5.485753191710229 L16.743546784561488,5.469856561929548 L16.558749274340233,5.447816026448933 L16.381322665418416,5.419843847673645 L16.21297567303121,5.386209412976439 L16.055329570743123,5.3472366403499 L15.980998229376375,5.325863755011381 L15.909902576697323,5.303300858899109 " />
			<path d="M8.40206094929335,-6.155998911931819 L9.74048703527384,-6.275542308220893 " />
			<path d="M13.169772675170291,-5.1324470949220755 L12.811142486303073,-4.686305066261913 " />
			<path d="M12.811142486303066,-5.25199049121115 L12.811142486303066,-4.686305066261914 " />
			<path d="M12.811142486303066,-4.686305066261914 L9.799683792846963,-4.417332424611498 " />
			<path d="M9.799683792846965,-6.255810055696518 L9.799683792846965,-4.417332424611496 " />
			<path d="M9.799683792846965,-4.417332424611495 L7.5951430243421045,-5.152179347446449 " />
			<path d="M7.5951430243421045,-5.152179347446449 L8.402060949293354,-6.155998911931818 " />
			<path d="M20.364675298172564,2.168460795638746 L-6.505382386916242,-6.788225099390857 " />
			<path d="M20.364675298172564,0.2828427124746191 L-3.6769552621700505,-7.731034140972919 " />
			<path d="M20.364675298172564,0.2828427124746191 L20.364675298172564,2.168460795638746 " />
			<path d="M-6.505382386916237,-6.788225099390858 L0.8485281374238571,-9.239528607504223 " />
			<path d="M0.8485281374238518,-9.239528607504223 L27.718585822512658,-0.28284271247461934 " />
			<path d="M27.718585822512658,-0.28284271247461934 L20.364675298172564,2.1684607956387456 " />
			<path d="M24.890158697766466,-1.225651754056683 L20.364675298172564,0.28284271247461845 " />
			<path d="M18.738329701443508,5.303300858899107 L37.12310601229374,-0.8249579113843071 " />
			<path d="M-15.909902576697313,-5.303300858899108 L15.909902576697338,5.303300858899107 " />
			<path d="M2.474873734152915,-12.374368670764586 L-15.909902576697316,-6.246109900481171 " />
			<path d="M37.12310601229376,-1.7677669529663689 L5.303300858899107,-12.374368670764584 " />
			<path d="M37.70889244992065,-6.0104076400856545 L37.70648336233099,-6.0431194229706 L37.69926190326504,-6.075752400305361 L37.68724546985021,-6.1082279563892286 L37.67046301072711,-6.140467854763073 L37.64895495630974,-6.17239442668783 L37.622773121385066,-6.203930758255296 L37.59198058028669,-6.235000875680468 L37.55665151494322,-6.265529928329047 L37.51687103616754,-6.295444369039176 L37.47273497861736,-6.324672131302986 L37.42434966992119,-6.353142802881136 L37.37183167452574,-6.380787795432056 L37.31530751288194,-6.407540509747276 L37.25491335664612,-6.433336496194752 L37.19079470063056,-6.458113609983667 L37.123106012293746,-6.481812160876684 " />
			<path d="M36.34134798195432,-7.9077742361866825 L36.38472464452629,-7.892053673980031 L36.427292383472974,-7.874080913752376 L36.46900024820342,-7.853877467634208 L36.50979831733566,-7.831467517730205 L36.54963775844906,-7.806877887174965 L36.58847088653338,-7.780138008027585 L36.62625122106431,-7.751279886043565 L36.66293354163739,-7.7203380623661655 L36.69847394209373,-7.687349572183087 L36.73282988307248,-7.652353900397957 L36.76596024292756,-7.61539293436967 L36.797825366947315,-7.576510913776171 L36.82838711481845,-7.535754377662666 L36.85760890627727,-7.493172108737658 L36.88545576489374,-7.448815074983474 L36.91189435993574,-7.402736368651176 L36.93689304626367,-7.354991142712866 L36.96042190220743,-7.305636544847454 L37.00295926638861,-7.202337384868848 L37.039302856482024,-7.093333308054627 L37.06927872166557,-6.979146039108521 L37.092743388870716,-6.860322110975007 L37.10958454948569,-6.737430248976237 L37.11972159689659,-6.6110586487299 L37.12310601229374,-6.481812160876704 " />
			<path d="M37.12310601229374,-6.481812160876688 L37.12310601229374,-1.7677669529663707 " />
			<path d="M5.303300858899105,-17.0884138786749 L5.232205206220046,-17.110976774787172 L5.1578738648533,-17.13234966012569 L5.000227762565213,-17.17132243275223 L4.831880770178005,-17.204956867449436 L4.65445416125619,-17.232929046224722 L4.469656651034936,-17.25496958170534 L4.279267940558267,-17.27086621148602 L4.08512157718513,-17.280465842331996 L3.8890872965260095,-17.283676024550534 L3.693053015866889,-17.280465842331996 L3.498906652493752,-17.27086621148602 L3.308517942017083,-17.25496958170534 L3.123720431795829,-17.232929046224722 L2.946293822874014,-17.204956867449436 L2.7779468304868056,-17.17132243275223 L2.6203007281987194,-17.13234966012569 L2.545969386831974,-17.110976774787172 L2.4748737341529266,-17.088413878674903 " />
			<path d="M3.2566317644923326,-18.514375953984892 L3.2132551019203692,-18.498655391778243 L3.1706873629736796,-18.480682631550586 L3.1289794982432304,-18.46047918543242 L3.0881814291109997,-18.438069235528417 L3.048341987997594,-18.413479604973176 L3.009508859913274,-18.386739725825798 L2.9717285253823507,-18.357881603841776 L2.935046204809261,-18.326939780164377 L2.8995058043529287,-18.293951289981297 L2.8651498633741754,-18.25895561819617 L2.8320195035190956,-18.221994652167883 L2.8001543794993387,-18.18311263157438 L2.769592631628207,-18.142356095460876 L2.740370840169381,-18.09977382653587 L2.712523981552917,-18.055416792781685 L2.6860853865109173,-18.00933808644939 L2.6610867001829868,-17.96159286051108 L2.637557844239229,-17.912238262645666 L2.5950204800580456,-17.80893910266706 L2.5586768899646324,-17.699935025852838 L2.52870102478109,-17.58574775690673 L2.505236357575941,-17.46692382877322 L2.4883951969609694,-17.34403196677445 L2.4782581495500673,-17.21766036652811 L2.4748737341529132,-17.088413878674913 " />
			<path d="M5.303300858899104,-17.0884138786749 L5.2999164435019495,-17.21766036652811 L5.289779396091047,-17.34403196677445 L5.272938235476076,-17.46692382877322 L5.249473568270927,-17.585747756906734 L5.219497703087384,-17.699935025852838 L5.1831541129939716,-17.80893910266706 L5.140616748812787,-17.912238262645666 L5.11708789286903,-17.96159286051108 L5.0920892065411,-18.00933808644939 L5.0656506114991,-18.055416792781685 L5.037803752882636,-18.09977382653587 L5.008581961423809,-18.14235609546088 L4.9780202135526785,-18.18311263157438 L4.9461550895329225,-18.221994652167883 L4.913024729677842,-18.25895561819617 L4.878668788699088,-18.2939512899813 L4.843128388242756,-18.326939780164377 L4.8064460676696665,-18.357881603841776 L4.768665733138743,-18.386739725825798 L4.729832605054423,-18.413479604973176 L4.689993163941017,-18.438069235528417 L4.649195094808787,-18.46047918543242 L4.607487230078338,-18.480682631550586 L4.564919491131648,-18.498655391778243 L4.521542828559696,-18.51437595398489 " />
			<path d="M2.474873734152915,-17.0884138786749 L2.474873734152915,-12.37436867076458 " />
			<path d="M5.303300858899105,-12.37436867076458 L5.303300858899105,-17.0884138786749 " />
			<path d="M-15.90990257669732,-10.960155108391486 L-15.906518161300166,-11.089401596244699 L-15.896381113889264,-11.215773196491035 L-15.879539953274293,-11.338665058489807 L-15.856075286069144,-11.45748898662332 L-15.826099420885601,-11.571676255569425 L-15.789755830792188,-11.680680332383648 L-15.747218466611004,-11.783979492362253 L-15.723689610667247,-11.833334090227666 L-15.698690924339317,-11.881079316165977 L-15.672252329297315,-11.927158022498276 L-15.644405470680852,-11.971515056252457 L-15.615183679222028,-12.014097325177465 L-15.584621931350895,-12.05485386129097 L-15.552756807331138,-12.09373588188447 L-15.519626447476059,-12.130696847912755 L-15.485270506497304,-12.165692519697886 L-15.449730106040972,-12.198681009880964 L-15.413047785467883,-12.229622833558365 L-15.37526745093696,-12.258480955542385 L-15.33643432285264,-12.285220834689765 L-15.296594881739233,-12.309810465245006 L-15.255796812607002,-12.332220415149008 L-15.214088947876554,-12.352423861267177 L-15.171521208929866,-12.37039662149483 L-15.128144546357913,-12.38611718370148 " />
			<path d="M-15.909902576697318,-10.960155108391486 L-15.977591265034143,-10.936456557498467 L-16.041709921049698,-10.911679443709552 L-16.102104077285514,-10.885883457262077 L-16.158628238929314,-10.859130742946856 L-16.21114623432477,-10.831485750395936 L-16.259531543020934,-10.803015078817786 L-16.30366760057111,-10.773787316553976 L-16.343448079346796,-10.743872875843849 L-16.378777144690268,-10.713343823195268 L-16.409569685788643,-10.682273705770097 L-16.43575152071331,-10.650737374202631 L-16.457259575130685,-10.618810802277874 L-16.474042034253785,-10.586570903904029 L-16.486058467668617,-10.554095347820162 L-16.49327992673457,-10.5214623704854 L-16.495689014324224,-10.48875058760046 " />
			<path d="M-15.909902576697316,-6.246109900481171 L-15.909902576697316,-10.960155108391488 " />
			<path d="M5.303300858899107,-17.0884138786749 L37.12310601229376,-6.481812160876686 " />
			<path d="M-15.909902576697316,-10.960155108391488 L2.474873734152915,-17.088413878674903 " />
			<path d="M36.34134798195432,-7.9077742361866825 L36.45853287723392,-7.864602675603107 L36.5727949088715,-7.814201569950891 L36.683688566825474,-7.756767434190888 L36.790781474413436,-7.692524205214848 L36.89365607415783,-7.621722368710817 L36.991911255851235,-7.54463798251421 L37.085163920493464,-7.461571600252574 L37.1730504740025,-7.372847099480719 L37.25522824487544,-7.278810418875396 L37.33137682027177,-7.179828209413184 L37.40119929530976,-7.0762864047906975 L37.46442343070475,-6.9685887166610625 L37.52080271423579,-6.857155060553771 L37.57011732190196,-6.742419918615287 L37.61217497502067,-6.6248306455541 L37.6468116899263,-6.504845724395407 L37.67389241734592,-6.382932978846236 L37.693311568959174,-6.259567749241079 L37.70499342908942,-6.135231039180013 L37.70889244992065,-6.010407640085653 " />
			<path d="M37.708892449920654,-6.0104076400856545 L37.708892449920654,-1.2963624321753375 " />
			<path d="M3.2566317644923313,-18.514375953984892 L3.368646508411851,-18.548107849951815 L3.482441829069451,-18.575232905846928 L3.5976284001373484,-18.59565831909854 L3.713812135422326,-18.609314208527984 L3.8305955371472753,-18.616153853433094 L3.9475790559047437,-18.616153853433094 L4.064362457629693,-18.609314208527984 L4.1805461929146706,-18.59565831909854 L4.295732763982568,-18.575232905846928 L4.4095280846401685,-18.548107849951815 L4.521542828559688,-18.514375953984892 " />
			<path d="M-16.495689014324224,-10.488750587600455 L-16.491789993492997,-10.613573986694814 L-16.480108133362755,-10.737910696755879 L-16.460688981749495,-10.861275926361035 L-16.433608254329883,-10.983188671910204 L-16.39897153942425,-11.103173593068897 L-16.356913886305538,-11.220762866130084 L-16.307599278639373,-11.335498008068567 L-16.25121999510833,-11.446931664175859 L-16.18799585971334,-11.554629352305493 L-16.11817338467535,-11.65817115692798 L-16.04202480927902,-11.75715336639019 L-15.959847038406085,-11.851190046995514 L-15.871960484897048,-11.93991454776737 L-15.778707820254821,-12.022980930029005 L-15.680452638561414,-12.10006531622561 L-15.577578038817025,-12.170867152729642 L-15.470485131229061,-12.235110381705681 L-15.359591473275087,-12.292544517465686 L-15.245329441637512,-12.342945623117902 L-15.128144546357914,-12.386117183701478 " />
			<path d="M-16.495689014324224,-10.488750587600455 L-16.495689014324224,-5.774705379690138 " />
			<path d="M36.34134798195432,-7.907774236186683 L4.521542828559685,-18.514375953984896 " />
			<path d="M3.256631764492333,-18.514375953984896 L-15.1281445463579,-12.386117183701485 " />

       </g>
    </g>
    
</g></svg>
