<?xml version="1.0" encoding="UTF-8" standalone="no"?>
<svg
   xmlns:svg="http://www.w3.org/2000/svg"
   xmlns="http://www.w3.org/2000/svg"
   width="800.0"
   height="600.0"

>
    <g transform="scale(14.476618456113407, -14.476618456113407)   translate(9.937530155377003,-32.68443791682497)" stroke-width="0.5"  fill="none">
       <!-- hidden lines -->
       <g  stroke="rgb(180,180,180)" fill="none" stroke-dasharray="0.5,0.5" >

       </g>

       <!-- solid lines -->
       <g  stroke="rgb(32,32,32)" fill="none">
			<path d="M29.344931419241718,2.9698484809834995 L0.07071067811865461,12.727922061357855 " />
			<path d="M21.142492757477765,0.2357022603955154 L-8.131727983645298,9.993775840769871 " />
			<path d="M0.42771337008356625,30.90645153573704 L0.5334938005192331,30.654278263290383 L0.6411275172940893,30.403114122062306 L0.7506004473524452,30.152991951641106 L0.8618982771623553,29.903944455377975 L0.9750064545871329,29.656004196110963 L1.089910190788025,29.40920359190742 L1.2065944621578524,29.163574911825364 L1.3250440122853355,28.919150271694303 L1.4452433539498557,28.67596162991611 L1.5671767711464213,28.434040783286488 L1.6908283211405042,28.193419362837535 L1.816181836552559,27.954128829702018 L1.943220927471895,27.716200470999844 L2.0719289835996513,27.479665395747272 L2.202289176420585,27.244554530789443 L2.334284461403392,27.01089861675669 L2.467897580229266,26.778728204045237 L2.6031110630484147,26.548073648822722 L2.739907230764249,26.31896510905918 L2.878268197344898,26.091432540583867 L3.0181758721618106,25.865505693168572 L3.1596119623550862,25.64121410663784 L3.3025579752252554,25.418587107006672 L3.4469952206512353,25.19765380264611 L3.5929048135339787,24.978443080477398 L3.7402676762657308,24.760983602195026 L3.8890645412244567,24.54530380051914 L4.039275953292993,24.331431875478096 L4.190882272402844,24.119395790721246 L4.34386367610211,23.909223269862736 L4.498200162147249,23.700941792856632 L4.653871551118371,23.49457859240395 L4.810857489057682,23.290160650391986 L4.969137450130749,23.087714694366454 L5.128690739310258,22.887267194036855 L5.28949649508186,22.688844357815597 L5.451533692171822,22.492472129391246 L5.614781144296055,22.298176184336405 L5.779217506930207,22.10598192675066 L5.944821280100506,21.91591448593893 L6.111570811194767,21.727998713125956 L6.279444297793541,21.542259178206926 L6.4484197905207665,21.358720166534944 L6.6184751959136,21.177405675745828 L6.789588279311145,20.998339412620368 L6.96173666776163,20.82154478998468 L7.134897852947657,20.647044923649016 L7.30904919412915,20.47486262938535 L7.484167921103618,20.30502041994425 L7.660231137183358,20.13754050211134 L7.837215822189177,19.97244477380378 L8.015098835460268,19.809754821207108 L8.193856918879854,19.64949191595288 L8.37346669991615,19.491677012337384 L8.553904694678325,19.336330744581925 L8.735147310987047,19.183473424134828 L8.917170851459062,19.03312503701583 L9.099951516605671,18.885305241202843 L9.283465407944542,18.740033364061688 L9.467688531124326,18.597328399819098 L9.652596799061977,18.457209007079193 L9.838166035092108,18.319693506383885 L10.024371976128077,18.184799877817472 L10.211190275834372,18.052545758655768 L10.398596507809893,17.922948441060015 L10.586566168781678,17.796024869815966 L10.775074681808697,17.671791640118332 L10.964097399495287,17.550264995400994 L11.153609607213767,17.43146082521319 L11.343586526335885,17.31539466314191 L11.534003317472582,17.20208168478097 L11.724835083721786,17.091536705746716 L11.916056873923594,16.98377417974099 L12.10764368592267,16.878808196661236 L12.299570469837288,16.77665248075827 L12.491812131334525,16.677320388841878 L12.684343534911378,16.580824908534385 L12.877139507181212,16.487178656572535 L13.07017484016517,16.396393877157866 L13.263424294588084,16.30848244035578 L13.45686260317853,16.223455840543547 L13.650464473972484,16.141325194907413 L13.844204593620244,16.062101241989026 L14.038057630696146,15.985794340281394 L14.23199823901062,15.912414466874516 L14.4260010609242,15.841971216150863 L14.620040730663028,15.77447379853093 L14.814091877635402,15.709931039268994 L15.00812912974899,15.648351377299178 L15.202127116728192,15.589742864132102 L15.396060473431316,15.534113162802122 L15.58990384316704,15.48146954686543 L15.783631881009795,15.431818899449006 L15.977219257113605,15.38516771235064 L16.170640660023928,15.341522085190196 L16.363870799987183,15.300887724612018 L16.556884412257276,15.26326994353883 L16.749656260399014,15.228673660477074 L16.942161139587775,15.197103398873796 L17.13437387990496,15.168563286525227 L17.326269349629,15.143057055037065 L17.5178224585213,15.120588039336578 L17.70900816110678,15.101159177236543 L17.89980145994854,15.084773009051162 L18.090177408916286,15.071431677263892 L18.280111116448026,15.061136926247329 L18.469577748804603,15.053890102035112 L18.658552533316715,15.049692152145962 L18.847010761623928,15.048543625459764 L19.034927792905275,15.050444672145819 L19.222279057101037,15.055395043643212 L19.409040058125264,15.063394092693294 L19.59518637706862,15.074440773424314 L19.780693675391166,15.088533641488194 L19.965537698104576,15.105670854249336 L20.1496942769435,15.125850171025572 L20.333139333525526,15.149068953381128 L20.515848882499437,15.175324165471597 L20.697799034681257,15.204612374440856 L20.87896600017781,15.236929750869955 L21.05932609149716,15.272272069277765 L21.23885572664576,15.310634708673469 L21.41753143221186,15.35201265316078 L21.595329846434527,15.396400492593745 L21.772227722258265,15.443792423284116 L21.948201930372523,15.494182248760179 L22.12322946223586,15.547563380576968 L22.29728743308415,15.603928839177605 " />
			<path d="M22.29728743308429,15.603928839177652 L22.55061717414445,15.69192535137682 L22.801743793169294,15.786293021773751 L23.050596746110614,15.887005341519966 L23.297106127616367,15.994034019489796 L23.5412026906678,16.10734899022762 L23.78281786603167,16.226918422393563 L24.02188378152205,16.352708727705274 L24.25833328106629,16.484684570373183 L24.492099943569876,16.622808877026728 L24.7231181015748,16.767042847128593 L24.95132285970621,16.917345963874237 L25.176650112902188,17.073676005573436 L25.399036564421525,17.235989057510807 L25.618419743624443,17.4042395242819 L25.834738023521204,17.578380142601418 L26.04793063808379,17.758361994579964 L26.25793769931571,17.944134521465564 L26.464700214075133,18.135645537846163 L26.668160100646674,18.332841246309016 L26.868260205057155,18.535666252552957 L27.06494431713074,18.74406358094921 L27.258157186278936,18.95797469054644 L27.447844537021073,19.17733949151552 L27.633953084230832,19.40209636202935 L27.81643054810459,19.632182165573077 L27.995225668847347,19.86753226867981 L28.170288221072134,20.108080559086783 L28.341569027908843,20.353759464307014 L28.509019974818507,20.604499970611084 L28.672594023109177,20.860231642413797 L28.83224522314957,21.120882642060298 L28.98792872727678,21.386379750005936 " />
			<path d="M20.78549006551285,18.65223352941799 L20.632994169349328,18.39205741262108 L20.47668855719836,18.136531964083208 L20.316615379141563,17.885726089957906 L20.152817801239475,17.63970742369682 L19.98533999389123,17.39854230781138 L19.81422711992336,17.162295775982564 L19.639525322410975,16.93103153552361 L19.461281712234612,16.704811950200437 L19.279544355376114,16.483698023414348 L19.094362259956927,16.267749381751553 L18.905785363022346,16.05702425890401 L18.713864517075265,15.851579479965853 L18.518651476363072,15.651470446109688 L18.32019888292135,15.456751119646857 L18.118560252378188,15.267474009475709 L17.913789959522976,15.083690156921882 " />
			<path d="M-0.35355339059327306,30.861225980557975 L-0.35355339059327306,13.435028842544405 " />
			<path d="M-0.35355339059327207,13.435028842544403 L-0.3515104431392583,13.378900992380096 L-0.34540127547798777,13.321951719126131 L-0.33528472223364947,13.264729475415587 L-0.3212582113442567,13.207785342736253 L-0.3034568257773452,13.151667724214663 L-0.28205200260715135,13.096917063194189 L-0.2572498819818708,13.044060638470215 L-0.22928932188134366,12.993607486307093 L-0.19843959778413467,12.946043498140655 L-0.16499780939747433,12.901826741178061 L-0.1292860194246674,12.8613830469602 L-0.0916481519252027,12.825101910371163 L-0.052446680138050955,12.793332738589589 L-0.012059135666226767,12.766381486106528 L0.029125527358928566,12.74450770821645 L0.07071067811865245,12.727922061357857 " />
			<path d="M29.344931419241718,2.9698484809835 L29.393998627720542,2.957288644764133 L29.44240732811159,2.952489168120978 L29.489507849856576,2.9555144625884306 L29.512369088198305,2.9599528079393522 L29.534668078851816,2.9663239271024286 " />
			<path d="M29.53466807885182,2.96632392710243 L29.560451399307418,2.9764319238327217 L29.58520317946622,2.9892159426393725 L29.608804950225537,3.004614795550159 L29.63114374675674,3.0225547792485847 L29.652112649187266,3.0429500278390478 L29.67161129434972,3.065702923825583 L29.689546356148707,3.090704565337137 L29.705831992246246,3.1178352873630812 L29.72039025492775,3.146965234504198 L29.733151464182107,3.17795498249778 L29.74405454121013,3.2106562055420467 L29.753047300765193,3.244912386225878 L29.76008670092674,3.2805595646659325 L29.76513904911123,3.3174271232655634 L29.7681801633345,3.3553386033394648 L29.769195487953645,3.394112549695427 " />
			<path d="M29.76919548795365,20.82030968770909 L29.76919548795365,3.3941125496954285 " />
			<path d="M29.769195487953645,20.820309687709095 L29.765770393659114,20.89318617651508 L29.755550412517007,20.96716939413301 L29.738700556847164,21.041064803880467 L29.715492885250693,21.113679286825242 L29.6863021099384,21.183840405942494 L29.65159954660891,21.250415336340794 L29.611945504562172,21.31232915590874 L29.56798023991783,21.368582201060402 L29.52041361800833,21.418266207352914 L29.470013651858242,21.460578974368982 L29.417594101808042,21.4948373180844 L29.390890570287304,21.508767886712626 L29.364001336499534,21.52048810159104 L29.337035048919724,21.529950606090484 L29.31010066736596,21.537117166072647 L29.283307022737016,21.541958824378725 L29.25676237727092,21.54445601783352 L29.230573987101177,21.54459865629231 L29.204847668878312,21.542386163410995 L29.179687372207738,21.5378274789749 L29.155194759631616,21.530941022776712 " />
			<path d="M29.155194759631616,21.530941022776712 L29.130199292268312,21.521188393268908 L29.10616861343206,21.50892212949682 L29.08321069263616,21.49419734361681 L29.06142867950662,21.477080193891645 L29.040920440332282,21.457647587442317 L29.021778118352938,21.435986834705403 L29.00408771976099,21.412195257148458 L28.98792872727679,21.386379750005982 " />
			<path d="M0.4277133700835538,30.90645153573703 L0.40528010402850834,30.956134067338095 L0.3800490928005563,31.00384035871153 L0.3522313238193599,31.04917147906429 L0.32205941555768147,31.09174835932034 L0.28978567233312874,31.13121496198196 L0.2556799744824135,31.167241258395798 L0.22002752156096705,31.199525988527057 L0.18312644743978534,31.22779918016403 L0.14528532724260176,31.25182440648675 L0.10682059697094595,31.271400763121523 L0.06805390739476541,31.28636454814869 L0.029309434335973023,31.296590631015114 L-0.00908883216305889,31.301993498904135 L-0.04681979711747451,31.30252797181308 L-0.08356794566878617,31.298189580358663 L-0.11902598149144461,31.28901460315097 " />
			<path d="M-0.11902598149144628,31.28901460315097 L-0.14480930194704203,31.27890660642068 L-0.16956108210584597,31.266122587614028 L-0.1931628528651636,31.250723734703243 L-0.21550164939636762,31.232783751004817 L-0.23647055182689336,31.212388502414353 L-0.2559691969893444,31.189635606427817 L-0.2739042587883316,31.164633964916263 L-0.2901898948858708,31.13750324289032 L-0.3047481575673773,31.108373295749203 L-0.3175093668217324,31.07738354775562 L-0.3284124438497563,31.044682324711353 L-0.33740520340481917,31.010426144027523 L-0.3444446035663638,30.97477896558747 L-0.34949695175085527,30.937911406987837 L-0.35253806597412596,30.899999926913935 L-0.3535533905932721,30.86122598055798 " />
			<path d="M-4.4547727214752495,21.189633209556877 L-4.522197277774187,21.165829050862055 L-4.589562879188397,21.13938709292819 L-4.656810622382301,21.110330456153356 L-4.723881707073544,21.078684547166326 L-4.7907174874469565,21.044477036611426 L-4.857259523433463,21.00773783495381 L-4.92344963180908,20.96849906632625 L-4.98922993706934,20.92679504044034 L-5.0545429220346465,20.88266222258668 L-5.119331478142314,20.836139201750235 L-5.18353895538133,20.787266656868784 L-5.247109211826156,20.736087321263955 L-5.309986662726271,20.682645945275922 L-5.372116329108535,20.626989257134497 L-5.433443885849869,20.569165922100726 L-5.493915709178209,20.509226499914842 L-5.55347892356023,20.447223400587664 L-5.612081447934809,20.3832108385742 L-5.669672041251818,20.31724478536943 L-5.726200347276426,20.249382920567793 L-5.781616938619733,20.179684581429132 L-5.835873359957242,20.1082107109952 L-5.94071698496294,19.960187856235233 L-6.040364608524538,19.80583195777942 L-6.134467786081464,19.645682762299952 L-6.22269746071113,19.48030027428113 L-6.304745113764447,19.310262797813962 L-6.380323843683785,19.136164914401252 L-6.449169369230976,18.95861540384441 L-6.51104095361733,18.77823511548208 L-6.565722246304189,18.59565479722443 L-6.613022039530436,18.411512889974418 L-6.652774936921559,18.226453295148474 L-6.684841931842298,18.041123123103013 L-6.7091108934705135,17.85617043034005 L-6.7254969588925935,17.67224195340435 L-6.733942829849317,17.48998084739618 L-6.734418973094542,17.310024437007513 L-6.731666787093912,17.221107513401847 L-6.7269237236660935,17.13300198794584 L-6.720193930065038,17.04578489861174 L-6.711483290707756,16.959532506538363 L-6.700799422029081,16.874320229349667 L-6.688151665821987,16.790222575210844 L-6.673551081069288,16.707313077679665 L-6.657010434273845,16.625664231409978 L-6.638544188295762,16.545347428763613 L-6.618168489706297,16.46643289738613 L-6.5959011546695825,16.388989638800957 L-6.571761653364474,16.313085368075612 L-6.545771092960152,16.238786454612832 L-6.5179521991603755,16.16615786411827 L-6.488329296332517,16.095263101795595 L-6.4569282862387425,16.02616415681864 L-6.423776625387957,15.958921448129102 L-6.3889033010282965,15.893593771607248 L-6.352338805801176,15.83023824866181 L-6.314115111079036,15.768910276283988 L-6.2742656390101255,15.709663478609269 L-6.23282523329474,15.652549660029392 L-6.1898301287184845,15.597618759895472 L-6.145317919469193,15.544918808851875 L-6.09932752626521,15.49449588683905 L-6.051899162323776,15.446394082802007 L-6.003074298199279,15.400655456139688 L-5.952895625522102,15.357319999928956 L-5.90140701966979,15.316425605955326 L-5.848653501403165,15.27800803158102 L-5.794681197500943,15.242100868479362 L-5.73953730042726,15.208735513262765 L-5.683270027067386,15.177941140030084 L-5.625928576567695,15.149744674857274 L-5.567563087316781,15.124170772253692 L-5.508224593105295,15.101241793604604 L-5.447964978502864,15.080977787618782 L-5.386836933491117,15.063396472798242 L-5.324893907392452,15.048513221945504 L-5.262190062134863,15.036341048721855 L-5.198780224893671,15.026890596268442 L-5.134719840151574,15.020170127900078 L-5.0700649212189335,15.01618551987995 L-5.004872001256691,15.014940256281509 L-4.939198083844736,15.016435425942056 L-4.87310059313894,15.020669721510679 L-4.806637323660457,15.027639440591388 L-4.739866389761176,15.037338488980412 L-4.6728461748095205,15.049758385994881 L-4.605635280141022,15.064888271888185 L-4.538292473818313,15.082714917345548 L-4.4708766392453345,15.10322273505152 L-4.403446723680683,15.126393793319266 L-4.336061686695135,15.152207831769715 L-4.268780448618404,15.180642279046896 L-4.201661839020203,15.211672272553956 L-4.134764545270668,15.245270680192581 L-4.068147061225124,15.281408124086845 L-4.001867636078053,15.320053006270722 L-3.935984223430991,15.361171536316814 L-3.8705544306188773,15.404727760882126 L-3.805635468339189,15.450683595145055 L-3.741284100627878,15.498998856106107 L-3.677556595225865,15.549631297723234 L-3.614508674379481,15.602536647851052 L-3.5521954661178854,15.657668646951649 L-3.490671456050057,15.714979088543142 L-3.429990439723503,15.774417861350603 L-3.3702054755863458,15.835932993122501 L-3.311368838593922,15.899470696074363 L-3.253531974500451,15.96497541391989 L-3.196745454875739,16.032389870448426 L-3.1410589328862635,16.101655119606313 L-3.0865210998793,16.172710597038296 " />
			<path d="M-3.086521099879284,16.172710597038318 L-2.983146442792724,16.316924755845157 L-2.8847134364008014,16.467291184399784 L-2.791552614033514,16.62330495942318 L-2.703976805278942,16.784442194116853 L-2.6222800855164348,16.950161797349654 L-2.5467367884255494,17.119907290615945 L-2.4776005847866687,17.293108676663792 L-2.415103630666645,17.46918435351852 L-2.3594557878498272,17.647543067474317 L-2.310843919132223,17.827585898495922 L-2.2694312608451574,18.008708271363485 L-2.2353568747154817,18.19030198580723 L-2.208735180902936,18.371757258814913 L-2.1896555737827277,18.552464772254 L-2.178182121763492,18.731817718932856 L-2.174353352148634,18.90921384023024 " />
			<path d="M-2.174353352148634,18.909213840230265 L-2.1771002171495613,19.057491385155366 L-2.1853341947139584,19.203580473153206 L-2.1990354484686616,19.347129162814912 L-2.2181709708932873,19.48779163277371 L-2.242694662838242,19.62522901481889 L-2.272547444581607,19.75911021025901 L-2.3076573981573683,19.88911268756765 L-2.3479399406120933,20.014923259390102 L-2.3932980277726745,20.136238837039137 L-2.443622388034243,20.252767160662216 L-2.498791785605035,20.364227503321047 L-2.5586733125740344,20.470351347287398 L-2.62312270909777,20.5708830309258 L-2.691984710934916,20.665580364604835 L-2.7650934234914475,20.754215214153163 L-2.8422727214752506,20.836574050454722 L-2.923336673197373,20.912458463859085 L-3.0080899884977508,20.98168564216767 L-3.096328489216313,21.044088811044343 L-3.187839601076049,21.09951763578941 L-3.282402865793062,21.147838583509074 L-3.3797904721798844,21.188935244807855 L-3.4797678049625844,21.222708614229045 L-3.5820940099895076,21.249077328767513 L-3.686522574470027,21.267977863880304 L-3.792801920845448,21.279364686522847 L-3.90067601286138,21.283210364842024 L-4.009884972381503,21.27950563426192 L-4.120165705456757,21.268259419803005 L-4.231252536141713,21.249498814580956 L-4.342877846531193,21.223269014536992 L-4.454772721475229,21.189633209556884 " />
			<path d="M-8.555992052357226,28.127079759969995 L-8.555992052357226,10.700882621956424 " />
			<path d="M-8.131727983645295,9.993775840769871 L-8.173313134405022,10.010361487628465 L-8.214497797430178,10.032235265518544 L-8.254885341902002,10.059186518001605 L-8.294086813689153,10.09095568978318 L-8.331724681188618,10.127236826372215 L-8.367436471161426,10.167680520590077 L-8.400878259548085,10.211897277552671 L-8.431727983645295,10.259461265719109 L-8.459688543745822,10.309914417882231 L-8.484490664371103,10.362770842606205 L-8.505895487541297,10.417521503626679 L-8.523696873108207,10.473639122148269 L-8.5377233839976,10.530583254827603 L-8.547839937241939,10.587805498538147 L-8.553949104903209,10.64475477179211 L-8.555992052357222,10.700882621956413 " />
			<path d="M-8.555992052357222,28.127079759969988 L-8.554976727738078,28.16585370632595 L-8.551935613514807,28.203765186399853 L-8.546883265330315,28.240632744999484 L-8.53984386516877,28.27627992343954 L-8.530851105613708,28.31053610412337 L-8.519948028585684,28.343237327167635 L-8.507186819331329,28.37422707516122 L-8.492628556649821,28.403357022302334 L-8.476342920552282,28.43048774432828 L-8.458407858753295,28.455489385839833 L-8.438909213590845,28.47824228182637 L-8.417940311160319,28.498637530416833 L-8.395601514629115,28.51657751411526 L-8.371999743869797,28.531976367026044 L-8.347247963710993,28.544760385832696 L-8.321464643255402,28.554868382562987 " />
			<path d="M20.78549006551284,18.652233529417995 L20.80164905799704,18.678049036560473 L20.819339456588988,18.70184061411742 L20.838481778568333,18.723501366854332 L20.85899001774267,18.74293397330366 L20.880772030872212,18.760051123028827 L20.90372995166811,18.774775908908836 L20.927760630504363,18.787042172680923 L20.952756097867663,18.796794802188728 " />
			<path d="M21.33222941708787,0.23217770651444558 L21.309930426434356,0.22580658735136816 L21.287069188092627,0.22136824200044636 L21.23996866634764,0.21834294753299377 L21.191559965956593,0.2231424241761487 L21.142492757477772,0.23570226039551534 " />
			<path d="M-4.03050865276332,20.482526428370328 L-4.108152895707646,20.454478791576648 L-4.18566121680505,20.422147809236133 L-4.2628979321496026,20.385590079065064 L-4.339727833300836,20.344869598006625 L-4.416016423975866,20.300057650199633 L-4.491630155494834,20.251232682190544 L-4.566436660567507,20.19848016560707 L-4.640304985011763,20.14189244753397 L-4.713105816998328,20.081568588852793 L-4.7847117134204655,20.01761419082868 L-4.854997322992321,19.950141210247722 L-4.923839605685388,19.879267763428523 L-4.991118048118955,19.80511791945109 L-5.0567148745274695,19.727821482964934 L-5.120515252935503,19.6475137669567 L-5.182407496179414,19.564335355874988 L-5.242283257423779,19.47843185952717 L-5.300037719830341,19.389953658178904 L-5.3555697800474436,19.299055639302633 L-5.408782225198745,19.205896926435905 L-5.459581903061364,19.110640600624137 L-5.507879885135564,19.013453414935476 L-5.553591622320505,18.91450550254755 L-5.596637092923548,18.813970078917045 L-5.636940942743992,18.712023138553572 L-5.674432616986042,18.608843146928578 L-5.709046483770061,18.504610728058676 L-5.740721949025918,18.399508348310267 L-5.76940356256727,18.293719996979007 L-5.795041115161112,18.18743086420329 L-5.817589726422669,18.080827016775537 L-5.837009923381736,17.974095072418862 L-5.853267709582964,17.867421873099296 L-5.86633462459911,17.76099415794545 L-5.87618779385306,17.654998236348188 L-5.88280996866143,17.549619661812624 L-5.886189556429634,17.44504290713331 L-5.886320640945549,17.341451041461312 L-5.883202992736274,17.239025409828468 L-5.876842069469846,17.137945315689812 L-5.867249006401185,17.038387707039963 L-5.854440596879039,16.94052686665289 L-5.838439262948011,16.84453410698734 L-5.819273016097151,16.750577470292043 L-5.796975408223828,16.658821434435627 L-5.771585472898713,16.56942662497623 L-5.743147657034696,16.48254953397491 L-5.7117117430793645,16.398342246044976 L-5.677332761867232,16.316952172116924 L-5.640070896284298,16.238521791384958 L-5.599991375913568,16.1631884018869 L-5.557164362845956,16.09108388015405 L-5.5116648288564924,16.02233445035183 L-5.463572424160821,15.95706046331528 L-5.41297133798175,15.895376185866212 L-5.359950151169954,15.83738960078093 L-5.304601681136797,15.783202217758582 L-5.247022819370765,15.732908895721103 L-5.1873143618219295,15.686597676755836 L-5.125580832451359,15.644349631991517 L-5.061930300254398,15.606238719677403 L-4.996474190078089,15.572331655714036 L-4.929327087563945,15.542687796862236 L-4.860606538557527,15.517359036834817 " />
			<path d="M-4.860606538557519,15.517359036834813 L-4.805540445817455,15.500501387522585 L-4.749635336346228,15.486357874472535 L-4.692951730657482,15.474943808855368 L-4.6355509920320275,15.466271547057122 L-4.577495260088548,15.460350477302653 L-4.518847383513868,15.457187009492348 L-4.459670852025614,15.456784568263036 L-4.400029727640927,15.459143589280616 L-4.339988575325622,15.464261518768433 L-4.279612393098878,15.472132816271877 L-4.21896654166913,15.482748960656252 L-4.158116673677315,15.4960984593314 L-4.097128662624098,15.512166860693085 L-4.036068531557993,15.530936769767703 L-3.975002381601601,15.55238786704333 L-3.913996320393316,15.576496930466792 L-3.853116390521992,15.603237860582855 L-3.792428498032016,15.632581708788406 L-3.7319983410762045,15.664496708670999 L-3.6718913387937544,15.698948310397816 L-3.6121725604902446,15.735899218117869 L-3.5529066551963466,15.775309430336916 L-3.4941577816815137,15.817136283221387 L-3.435989538998401,15.861334496784453 L-3.3784648976332146,15.907856223904226 L-3.321646131336516,15.956651102121047 L-3.265594749708292,16.00766630815774 L-3.2103714316102527,16.060846615103895 L-3.1560359594774527,16.11613445220215 L-3.1026471546003522,16.17346996717191 L-3.0502628134473655,16.23279109100287 L-2.998939645096862,16.294033605148293 " />
			<path d="M-2.1770819931886822,18.75960656087283 L-2.1813950193818314,18.83939447319949 L-2.1877098180056453,18.918281976956045 L-2.196019552925471,18.996183671858113 L-2.2063152283727567,19.073015224816398 L-2.2185856986834978,19.148693461232142 L-2.2328176803640596,19.223136455038436 L-2.2489957664713263,19.296263617389908 L-2.267102443291612,19.36799578390484 L-2.287118109300263,19.438255300365157 L-2.309021096381447,19.506966106781633 L-2.332787693285136,19.57405381973321 L-2.358392171295912,19.63944581289136 L-2.385806812085782,19.70307129564228 L-2.4150019377208762,19.76486138972184 L-2.4459459427895256,19.824749203780268 L-2.478605328616948,19.88266990579591 L-2.5129447395294986,19.93856079325965 L-2.548927001129235,19.99236136105399 L-2.586513160537349,20.044013366953344 L-2.625662528562911,20.093460894674624 L-2.666332723751274,20.14065041440983 L-2.7084797182644476,20.18553084077518 L-2.752057885543776,20.22805358811398 L-2.79702004970333,20.268172623093417 L-2.843317536600531,20.305844514538293 L-2.890900226528721,20.341028480447793 L-2.9397166084746478,20.373686432144357 L-2.989713835882113,20.40378301550687 L-3.040837783861424,20.431285649243545 L-3.0930331077827202,20.45616456016306 L-3.146243303189731,20.478392815405755 L-3.2004107669691058,20.497946351600007 " />
			<path d="M-3.200410766969121,20.49794635160001 L-3.2488616484781634,20.51293497282479 L-3.297968851078248,20.525819997938477 L-3.347691141204079,20.53659060784537 L-3.3979867688233205,20.54523775884876 L-3.448813502492607,20.551754190244576 L-3.500128664817778,20.556134430417963 L-3.551889168288564,20.558374801437587 L-3.604051551457631,20.558473422143862 L-3.656572015433605,20.556430209728504 L-3.7094064606574406,20.552246879804052 L-3.7625105239312444,20.545926944963334 L-3.8158396156684695,20.537475711830062 L-3.8693489573342,20.526900276603055 L-3.9229936190440884,20.514209519097825 L-4.030508652763319,20.482526428370328 " />
			<path d="M3.1643028458097997,8.96257845153949 L3.0301098013780767,8.919990985127573 L2.8898093945483443,8.879649664051119 L2.7437396212895186,8.841651674086085 L2.592252376479581,8.806088555718528 L2.4357126061599943,8.773045983615555 L2.2744974283487243,8.74260356022755 L2.108995224529898,8.714834624018897 L1.9396047040087965,8.689806072789194 L1.766733943386213,8.667578202510596 L1.5907994034661777,8.648204562069534 L1.412224925965404,8.631731824262761 L1.2314407124414668,8.618199673358498 L1.048882287899573,8.607640709493547 L0.8649894515746742,8.600080370136716 L0.6802052174165858,8.595536868807722 L0.4949747468305825,8.59402115119923 L0.3097442762445793,8.595536868807722 L0.12496004208649081,8.600080370136716 L-0.058932794238407915,8.607640709493547 L-0.24149121878030166,8.618199673358498 L-0.4222754323042389,8.631731824262761 L-0.6008499098050124,8.648204562069534 L-0.776784449725048,8.667578202510596 L-0.9496552103476315,8.689806072789194 L-1.1190457308687334,8.714834624018897 L-1.2845479346875592,8.74260356022755 L-1.4457631124988297,8.773045983615555 L-1.6023028828184152,8.806088555718526 L-1.7537901276283523,8.841651674086085 L-1.8998599008871793,8.879649664051119 L-2.0401603077169126,8.919990985127573 L-2.1743533521486347,8.96257845153949 L-2.3021157513843877,9.007309466350065 L-2.4231397146137503,9.054076268626643 L-2.537133684508853,9.102766193046252 L-2.6438230396115268,9.15326194131623 L-2.742950755920445,9.205441864756093 L-2.834278026084458,9.25918025735985 L-2.9175848347104156,9.31434765863279 L-2.9926704883995257,9.370811165473159 L-3.0593540992353216,9.428434752347354 L-3.1174750205585062,9.487079598987364 L-3.1668932339788216,9.546604424820956 L-3.2074896866916127,9.606865829328935 L-3.2244483531876713,9.63722744117585 L-3.239166578286466,9.667718637509566 L-3.2516354962795484,9.698321051573549 L-3.261847596356961,9.729016249617866 L-3.2697967271314736,9.759785742002983 L-3.275478100343944,9.790610994337229 L-3.278888293747589,9.821473438641233 L-3.280025253169418,9.852354484532563 L-3.278888293747589,9.883235530423894 L-3.275478100343944,9.914097974727897 L-3.2697967271314736,9.944923227062144 L-3.2618475963569615,9.975692719447261 L-3.2516354962795484,10.006387917491578 L-3.239166578286466,10.036990331555561 L-3.2244483531876713,10.067481527889276 L-3.2074896866916127,10.097843139736192 L-3.1668932339788216,10.158104544244171 L-3.1174750205585067,10.217629370077761 L-3.059354099235322,10.276274216717773 L-2.992670488399526,10.333897803591968 L-2.917584834710416,10.390361310432336 L-2.8342780260844584,10.445528711705277 L-2.7429507559204453,10.499267104309034 L-2.643823039611527,10.551447027748896 L-2.537133684508854,10.601942776018875 L-2.4231397146137508,10.650632700438484 L-2.3021157513843886,10.697399502715061 L-2.1743533521486356,10.742130517525636 L-2.040160307716912,10.784717983937554 L-1.8998599008871784,10.825059305014008 L-1.7537901276283532,10.863057294979042 L-1.602302882818416,10.898620413346599 L-1.4457631124988302,10.931662985449572 L-1.28454793468756,10.962105408837576 L-1.1190457308687343,10.98987434504623 L-0.9496552103476339,11.014902896275933 L-0.7767844497250513,11.037130766554531 L-0.6008499098050166,11.056504406995593 L-0.42227543230424314,11.072977144802366 L-0.24149121878030344,11.086509295706628 L-0.05893279423840725,11.09706825957158 L0.12496004208649153,11.10462859892841 L0.30974427624457923,11.109172100257405 L0.4949747468305816,11.110687817865896 L0.680205217416584,11.109172100257405 L0.8649894515746717,11.10462859892841 L1.0488822878995703,11.09706825957158 L1.2314407124414668,11.086509295706628 L1.4122249259654063,11.072977144802366 L1.59079940346618,11.056504406995593 L1.7667339433862146,11.037130766554531 L1.9396047040087971,11.014902896275933 L2.1089952245298975,10.98987434504623 L2.2744974283487234,10.962105408837576 L2.435712606159994,10.931662985449574 L2.5922523764795793,10.8986204133466 L2.743739621289517,10.863057294979042 L2.889809394548342,10.825059305014008 L3.030109801378074,10.784717983937554 L3.164302845809799,10.742130517525636 L3.2920652450455545,10.697399502715061 L3.4130892082749154,10.650632700438484 L3.5270831781700176,10.601942776018875 L3.633772533272691,10.551447027748896 L3.7329002495816095,10.499267104309034 L3.824227519745622,10.445528711705277 L3.90753432837158,10.390361310432336 L3.9826199820606893,10.333897803591968 L4.049303592896485,10.276274216717775 L4.1074245142196695,10.217629370077763 L4.156842727639985,10.158104544244171 L4.197439180352777,10.097843139736192 L4.2143978468488354,10.067481527889276 L4.229116071947631,10.03699033155556 L4.241584989940713,10.006387917491576 L4.251797090018126,9.975692719447261 L4.259746220792638,9.944923227062144 L4.265427594005109,9.914097974727898 L4.268837787408754,9.883235530423894 L4.269974746830583,9.852354484532563 L4.268837787408754,9.821473438641233 L4.265427594005109,9.79061099433723 L4.259746220792638,9.759785742002983 L4.251797090018126,9.729016249617867 L4.241584989940713,9.69832105157355 L4.229116071947631,9.667718637509568 L4.214397846848836,9.63722744117585 L4.197439180352777,9.606865829328935 L4.156842727639986,9.546604424820956 L4.10742451421967,9.487079598987364 L4.049303592896486,9.428434752347354 L3.9826199820606902,9.370811165473159 L3.907534328371581,9.314347658632792 L3.824227519745623,9.25918025735985 L3.7329002495816104,9.205441864756093 L3.633772533272692,9.15326194131623 L3.5270831781700185,9.102766193046252 L3.4130892082749162,9.054076268626643 L3.292065245045556,9.007309466350065 L3.164302845809824,8.9625784515395 " />
			<path d="M23.38755678774506,2.2214938042277366 L23.253363743313336,2.178906337815819 L23.113063336483602,2.138565016739365 L22.966993563224776,2.100567026774331 L22.81550631841484,2.065003908406773 L22.658966548095254,2.0319613363038 L22.497751370283982,2.0015189129157958 L22.332249166465157,1.973749976707143 L22.162858645944056,1.9487214254774399 L21.989987885321472,1.9264935551988411 L21.814053345401437,1.9071199147577795 L21.635478867900662,1.8906471769510078 L21.454694654376723,1.877115026046744 L21.27213622983483,1.866556062181793 L21.088243393509934,1.8589957228249614 L20.903459159351844,1.8544522214959671 L20.71822868876584,1.8529365038874757 L20.532998218179838,1.8544522214959671 L20.34821398402175,1.8589957228249612 L20.16432114769685,1.866556062181793 L19.981762723154958,1.877115026046744 L19.80097850963102,1.8906471769510078 L19.622404032130245,1.9071199147577795 L19.44646949221021,1.9264935551988411 L19.273598731587626,1.9487214254774399 L19.104208211066524,1.973749976707143 L18.9387060072477,2.0015189129157953 L18.777490829436427,2.0319613363038 L18.620951059116845,2.065003908406773 L18.469463814306906,2.1005670267743306 L18.32339404104808,2.138565016739365 L18.183093634218345,2.178906337815819 L18.048900589786623,2.2214938042277366 L17.92113819055087,2.2662248190383107 L17.800114227321508,2.3129916213148887 L17.686120257426406,2.3616815457344975 L17.579430902323733,2.4121772940044766 L17.480303186014815,2.464357217444338 L17.3889759158508,2.5180956100480953 L17.305669107224844,2.5732630113210373 L17.230583453535733,2.6297265181614042 L17.163899842699937,2.6873501050355992 L17.105778921376753,2.745994951675611 L17.056360707956436,2.805519777509202 L17.015764255243646,2.8657811820171806 L16.998805588747587,2.8961427938640965 L16.984087363648793,2.9266339901978116 L16.97161844565571,2.9572364042617947 L16.961406345578297,2.9879316023061118 L16.953457214803784,3.018701094691228 L16.947775841591316,3.0495263470254748 L16.94436564818767,3.0803887913294776 L16.943228688765842,3.111269837220809 L16.94436564818767,3.1421508831121403 L16.947775841591316,3.173013327416143 L16.953457214803784,3.20383857975039 L16.961406345578297,3.234608072135506 L16.97161844565571,3.2653032701798232 L16.984087363648793,3.2959056842438064 L16.998805588747587,3.326396880577522 L17.015764255243646,3.3567584924244374 L17.056360707956436,3.417019896932416 L17.105778921376753,3.4765447227660076 L17.163899842699937,3.535189569406019 L17.230583453535733,3.5928131562802137 L17.305669107224844,3.649276663120581 L17.3889759158508,3.704444064393523 L17.48030318601481,3.7581824569972797 L17.579430902323733,3.810362380437142 L17.686120257426403,3.860858128707121 L17.800114227321508,3.9095480531267297 L17.92113819055087,3.9563148554033076 L18.048900589786623,4.001045870213882 L18.183093634218345,4.0436333366258 L18.32339404104808,4.083974657702254 L18.469463814306906,4.121972647667288 L18.62095105911684,4.1575357660348455 L18.777490829436427,4.1905783381378185 L18.9387060072477,4.221020761525823 L19.104208211066524,4.248789697734475 L19.273598731587626,4.2738182489641785 L19.446469492210205,4.296046119242777 L19.62240403213024,4.315419759683839 L19.800978509631015,4.33189249749061 L19.981762723154954,4.345424648394874 L20.16432114769685,4.355983612259825 L20.34821398402175,4.363543951616657 L20.532998218179838,4.368087452945652 L20.71822868876584,4.369603170554143 L20.903459159351844,4.368087452945652 L21.08824339350993,4.363543951616657 L21.272136229834828,4.355983612259825 L21.454694654376723,4.345424648394874 L21.635478867900666,4.33189249749061 L21.81405334540144,4.315419759683839 L21.989987885321472,4.296046119242777 L22.162858645944056,4.2738182489641785 L22.332249166465157,4.248789697734475 L22.497751370283982,4.221020761525823 L22.65896654809525,4.1905783381378185 L22.815506318414837,4.1575357660348455 L22.966993563224776,4.121972647667288 L23.1130633364836,4.083974657702254 L23.253363743313333,4.043633336625801 L23.38755678774506,4.001045870213882 L23.51531918698081,3.956314855403307 L23.636343150210173,3.9095480531267297 L23.750337120105275,3.860858128707121 L23.85702647520795,3.810362380437142 L23.956154191516866,3.75818245699728 L24.04748146168088,3.7044440643935235 L24.130788270306837,3.6492766631205815 L24.20587392399595,3.5928131562802146 L24.272557534831744,3.5351895694060205 L24.330678456154928,3.476544722766009 L24.380096669575245,3.417019896932418 L24.420693122288036,3.356758492424438 L24.437651788784095,3.3263968805775224 L24.452370013882888,3.295905684243806 L24.46483893187597,3.265303270179823 L24.475051031953384,3.234608072135506 L24.483000162727897,3.2038385797503905 L24.488681535940366,3.1730133274161436 L24.49209172934401,3.1421508831121407 L24.49322868876584,3.1112698372208096 L24.49209172934401,3.0803887913294785 L24.488681535940366,3.049526347025475 L24.483000162727897,3.0187010946912283 L24.475051031953384,2.9879316023061127 L24.46483893187597,2.9572364042617965 L24.45237001388289,2.9266339901978133 L24.437651788784095,2.896142793864097 L24.420693122288036,2.865781182017181 L24.380096669575245,2.8055197775092013 L24.330678456154928,2.74599495167561 L24.272557534831744,2.6873501050355983 L24.20587392399595,2.6297265181614042 L24.13078827030684,2.5732630113210373 L24.04748146168088,2.5180956100480953 L23.95615419151687,2.4643572174443387 L23.85702647520795,2.4121772940044766 L23.75033712010528,2.361681545734498 L23.636343150210173,2.3129916213148896 L23.515319186980815,2.266224819038312 L23.387556787745083,2.221493804227745 " />
			<path d="M0.07071067811865639,12.727922061357855 L-8.131727983645295,9.993775840769871 " />
			<path d="M29.344931419241718,2.9698484809835 L21.14249275747777,0.23570226039551567 " />
			<path d="M20.785490065512843,18.652233529417988 L28.9879287272768,21.386379750005972 " />
			<path d="M-0.35355339059327306,13.435028842544405 L-8.555992052357224,10.70088262195642 " />
			<path d="M-0.35355339059327484,30.861225980557972 L-8.555992052357226,28.127079759969988 " />
			<path d="M2.7400387770978707,9.669685232726039 L2.5718304986040996,9.617533459627484 L2.3927498349213656,9.569572355265377 L2.2037342772325736,9.526052997067826 L2.005773326107586,9.487203209824829 L1.7999033114461385,9.453226373020517 L1.5872019672682018,9.424300356137124 L1.3687827897528622,9.40057658750436 L1.145789208061522,9.382179261568801 L0.9193885984612826,9.369204688733248 L0.6907661730847084,9.361720791169676 L0.4611187753184471,9.359766747245166 L0.23164861430197542,9.363352786422313 L0.0035569713365171673,9.372460135707756 L-0.22196208884878776,9.387041117929215 L-0.4437279690518018,9.407019401326522 L-0.6605797200495094,9.432290399150057 L-0.8713821181925367,9.46272181717466 L-1.0750316083257392,9.498154346262794 L-1.270462080923514,9.538402496351347 L-1.456650453196444,9.58325556749617 L-1.6326220249520236,9.632478752890878 L-1.7974555811714445,9.68581436808561 L-1.9502882145903215,9.742983199970745 L-2.0219515885907833,9.77291228885483 L-2.090319843037058,9.803685968463624 L-2.155303471307939,9.835263950389793 L-2.2168173978804737,9.86760489324632 L-2.2747810897094753,9.900666456789983 L-2.32911866166009,9.93440535735253 L-2.3797589758554003,9.968777424506953 L-2.4266357348089893,10.003737658894707 L-2.4696875682205452,10.039240291138148 L-2.5088581133208763,10.075238841761063 L-2.5440960886611412,10.111686182038865 L-2.5753553612496978,10.148534595698745 L-2.602595006948677,10.18573584138907 L-2.625779364051209,10.223241215836172 L-2.644878079969151,10.261001617605896 L-2.6598661509702155,10.298967611386413 L-2.67072395491245,10.337089492708131 L-2.6774372769332335,10.37531735301599 " />
			<path d="M3.667386817350647,10.375317738788677 L3.6579825006420412,10.326142049919866 L3.641721447830004,10.277165576298227 L3.61863890945977,10.228494488626156 L3.588784923623723,10.180234295593484 L3.552224207489333,10.132489615156816 L3.5090360170059385,10.085363947749782 L3.459313975094497,10.03895945191585 L3.403165868692774,9.993376722850075 L3.340713415095911,9.948714574329845 L3.2720919980989076,9.905069824507395 L3.197450374513006,9.862537086028382 L3.116950351692186,9.821208560931566 L3.030766436768824,9.781173840774159 L2.9390854583589032,9.742519712416152 L2.842106161556837,9.705329969884655 L2.7400387770978734,9.66968523272604 " />
			<path d="M22.963292719033127,2.9286005854142845 L22.79508444053936,2.8764488123157306 L22.616003776856623,2.8284877079536224 L22.426988219167832,2.7849683497560713 L22.229027268042845,2.7461185625130735 L22.023157253381395,2.7121417257087623 L21.810455909203462,2.68321570882537 L21.592036731688122,2.659491940192606 L21.36904314999678,2.6410946142570464 L21.14264254039654,2.6281200414214942 L20.914020115019966,2.620636143857921 L20.684372717253705,2.618682099933411 L20.454902556237233,2.622268139110558 L20.226810913271773,2.6313754883960017 L20.00129185308647,2.6459564706174605 L19.779525972883455,2.665934754014768 L19.562674221885747,2.691205751838303 L19.35187182374272,2.721637169862907 L19.148222333609517,2.75706969895104 L18.952791861011743,2.797317849039593 L18.766603488738813,2.842170920184415 L18.590631916983234,2.891394105579124 L18.425798360763814,2.944729720773856 L18.272965727344936,3.0018985526589903 L18.201302353344474,3.0318276415430754 L18.132934098898197,3.0626013211518694 L18.067950470627316,3.0941793030780387 L18.006436544054782,3.126520245934565 L17.94847285222578,3.159581809478229 L17.894135280275165,3.1933207100407763 L17.843494966079856,3.227692777195199 L17.79661820712627,3.262653011582953 L17.753566373714712,3.2981556438263935 L17.714395828614382,3.33415419444931 L17.679157853274116,3.3706015347271103 L17.64789858068556,3.4074499483869913 L17.62065893498658,3.4446511940773163 L17.59747457788405,3.4821565685244176 L17.57837586196611,3.5199169702941413 L17.56338779096504,3.5578829640746585 L17.552529987022808,3.5960048453963775 L17.545816665002025,3.634232705704237 " />
			<path d="M23.890640759285905,3.634233091476918 L23.881236442577297,3.5850574026081063 L23.864975389765263,3.5360809289864683 L23.841892851395027,3.4874098413143972 L23.81203886555898,3.439149648281726 L23.77547814942459,3.3914049678450584 L23.732289958941195,3.344279300438025 L23.682567917029754,3.2978748046040938 L23.62641981062803,3.252292075538317 L23.563967357031167,3.2076299270180884 L23.495345940034163,3.163985177195638 L23.420704316448262,3.1214524387166267 L23.340204293627444,3.0801239136198117 L23.25402037870408,3.0400891934624035 L23.16233940029416,3.0014350651043977 L23.065360103492097,2.9642453225728995 L22.96329271903313,2.9286005854142854 " />
			<path d="M-2.6924230875188275,10.355778413487169 L-2.690987441976359,10.358062147913529 L-2.68601485022658,10.364936725624696 L-2.6619770754260976,10.391759325020177 L-2.613749551776191,10.434350575108262 L-2.5798279795402737,10.45999215583327 L-2.5392640643129365,10.487757825774368 L-2.4956623441380827,10.515014729048943 L-2.446500564655472,10.54326163651045 L-2.391957080069577,10.572173626641739 L-2.3322185019895927,10.601461279256505 L-2.2674796994294404,10.630870675499304 L-2.1979437988077652,10.660183397845541 L-2.045334496078045,10.71782265740422 L-1.9229750715610194,10.758683868071126 L-1.7923449298691312,10.79787188613459 L-1.654030668661412,10.83515539148557 L-1.5086159457417607,10.870322153257407 L-1.3566814790589428,10.903179029825838 L-1.1988050467065912,10.933551968808993 L-1.0355614869232044,10.96128600706739 L-0.8675226980921491,10.986245270703936 L-0.6952576387416576,11.008312975063934 L-0.51933232754483,11.027391424735077 L-0.34030984331963254,11.043402013547448 L-0.1587503250288982,11.05628522457352 L0.02478902821967255,11.066000630128158 L0.20975395717351297,11.072526891768621 L0.3955931424351893,11.075861760294558 L0.5817582044624015,11.076022075748003 L0.7566169076011149,11.073136860046128 L0.9307559755895644,11.067448214330591 L1.103719354393525,11.058950285437037 L1.2750483928857763,11.047652850404514 L1.4442818428461002,11.03358131647549 L1.6109558589612822,11.016776721095832 L1.7746039988251114,10.997295731914823 L1.9347572229383798,10.975210646785158 L2.090943894708883,10.950609393762937 L2.2426897804514208,10.92359553110767 L2.389518049387794,10.89428824728228 L2.5309492736468098,10.862822360953096 L2.6665014282642754,10.829348320989864 L2.7956898911830046,10.794032206465731 L2.9180274432528126,10.757055726657258 L3.033024268230518,10.718616221044417 L3.1130216699081417,10.689499227305198 L3.18849561950492,10.659938622875059 L3.259213441785972,10.63008958102372 L3.32495177686948,10.600145666634804 L3.3854965802266808,10.57033883620585 L3.4406431226818737,10.540939437848303 L3.4901959904124156,10.512256211287516 L3.5339690849487226,10.484636287862752 L3.5737194289327223,10.457141122142783 L3.6068578382926844,10.431819024159713 L3.6536693475803155,10.39000673446802 L3.676317523799033,10.364477285305597 L3.6810131090373077,10.357947020196718 L3.682372581179992,10.35577841348717 " />
			<path d="M17.53083085441643,3.6146937661754155 L17.5322664999589,3.6169775006017764 L17.537239091708678,3.623852078312941 L17.56127686650916,3.6506746777084227 L17.60950439015907,3.693265927796508 L17.643425962394986,3.7189075085215153 L17.68398987762232,3.746673178462615 L17.72759159779718,3.7739300817371904 L17.77675337727979,3.802176989198697 L17.83129686186568,3.8310889793299836 L17.891035439945664,3.8603766319447503 L17.955774242505818,3.8897860281875505 L18.0253101431275,3.9190987505337893 L18.177919445857217,3.9767380100924665 L18.300278870374246,4.0175992207593705 L18.430909012066135,4.056787238822834 L18.569223273273852,4.094070744173813 L18.714637996193503,4.1292375059456505 L18.86657246287632,4.162094382514084 L19.02444889522867,4.192467321497239 L19.187692455012055,4.220201359755636 L19.355731243843113,4.245160623392183 L19.527996303193603,4.267228327752182 L19.703921614390435,4.286306777423324 L19.882944098615635,4.302317366235693 L20.06450361690637,4.3152005772617645 L20.24804297015495,4.324915982816402 L20.433007899108787,4.331442244456865 L20.618847084370465,4.334777112982801 L20.805012146397672,4.334937428436248 L20.979870849536386,4.332052212734373 L21.15400991752483,4.326363567018837 L21.326973296328795,4.317865638125283 L21.498302334821044,4.306568203092761 L21.667535784781368,4.292496669163735 L21.83420980089655,4.275692073784078 L21.997857940760376,4.25621108460307 L22.158011164873642,4.234125999473404 L22.314197836644148,4.209524746451183 L22.465943722386683,4.182510883795915 L22.612771991323058,4.153203599970525 L22.75420321558207,4.121737713641343 L22.889755370199538,4.088263673678109 L23.018943833118264,4.052947559153976 L23.14128138518807,4.015971079345503 L23.256278210165775,3.9775315737326626 L23.336275611843398,3.948414579993443 L23.41174956144018,3.918853975563305 L23.48246738372123,3.8890049337119654 L23.548205718804738,3.8590610193230503 L23.608750522161937,3.8292541888940965 L23.66389706461713,3.7998547905365485 L23.713449932347675,3.7711715639757615 L23.75722302688398,3.7435516405509985 L23.79697337086798,3.71605647483103 L23.830111780227945,3.69073437684796 L23.876923289515574,3.648922087156267 L23.899571465734294,3.623392637993843 L23.904267050972567,3.616862372884964 L23.905626523115252,3.6146937661754177 " />
			<path d="M21.33222941708787,0.2321777065144457 L29.534668078851823,2.96632392710243 " />
			<path d="M-8.321464643255398,28.55486838256299 L-0.11902598149144339,31.289014603150974 " />
			<path d="M20.952756097867663,18.796794802188725 L29.15519475963162,21.53094102277671 " />

       </g>
    </g>
    
</svg>
