<?xml version="1.0" encoding="UTF-8" standalone="no"?>
<svg
   xmlns:svg="http://www.w3.org/2000/svg"
   xmlns="http://www.w3.org/2000/svg"
   width="450.0"
   height="338.0"

><g transform="translate(0,338) scale(1,-1)">
    <g transform="scale(8.155161730277195, -8.155161730277195)   translate(11.008426554759204,-26.684266504341792)" stroke-width="0.5"  fill="none">
       <!-- hidden lines -->
       <g  stroke="rgb(180,180,180)" fill="none" stroke-dasharray="0.5,0.5" >

       </g>

       <!-- solid lines -->
       <g  stroke="rgb(32,32,32)" fill="none">
			<path d="M29.344931419241718,2.9227080289043967 L0.07071067811865461,-6.835365551469959 " />
			<path d="M16.116138903442756,10.368934221532548 L16.161195731807926,10.35172969764751 L16.20251264891314,10.331720310381339 L16.240100918382605,10.30915689648044 L16.273971803840535,10.28429029269122 L16.304136568911126,10.25737133576008 L16.330606477218588,10.22865086243343 L16.353392792387126,10.198379709457672 L16.37250677804095,10.16680871357921 L16.38797799421014,10.134177632355263 L16.399977487467616,10.100640547708904 L16.408742256194092,10.06631160516473 L16.41450966827225,10.03130472649944 L16.417517091584763,9.995733833489739 L16.418001894014317,9.95971284791233 L16.416201443443583,9.923355691543916 L16.412353107755248,9.8867762861612 L16.399349202974474,9.813342470166221 L16.379901858038533,9.739764338368717 L16.354515249187354,9.666164329967039 L16.32369126958719,9.592663592763198 L16.287931812404288,9.519383274559205 L16.247738770804894,9.446444523157068 L16.203614037955262,9.373968486358798 L16.156059507021634,9.302076311966404 L16.105566410168652,9.230886055892945 L16.052447277759004,9.160463947201817 L15.996866553294504,9.090833267009675 L15.938984210125207,9.022016000005936 L15.878960221601156,8.95403413088001 L15.816954561072402,8.886909644321317 L15.687638117400972,8.755320757663274 L15.552271678476153,8.627408790306477 L15.411613945034489,8.50315049166905 L15.266125136727238,8.382408549453233 L15.116260927845575,8.265043914395017 L14.96247022663758,8.150921868073493 L14.805088527608786,8.039980286509946 L14.64435734140486,7.932217203390241 L14.480515341673534,7.827632468320239 L14.313801202062546,7.726225930905794 L14.144453596219625,7.627997440752762 L13.97271119779251,7.532946847467001 L13.798812680428933,7.441074000654368 L13.622995749465131,7.352378788680945 L13.4454490959639,7.266863061889203 L13.266290247348387,7.184531519207769 L13.085631138876984,7.105389083412213 L12.903583705808082,7.029440677278102 L12.72025988340007,6.956691223581007 L12.53577160691134,6.887145645096496 L12.35023081160028,6.820808864600138 L12.163749345724739,6.757685803892019 L11.976395668870905,6.6977808982825575 L11.788124714645171,6.641097310187324 L11.598873077892037,6.58763799640098 L11.408577353455994,6.537405913718185 L11.21717413618154,6.4904040189335985 L11.024600020913173,6.446635268841882 L10.830791602495388,6.406102620237694 L10.63568547577268,6.3688090299156945 L10.43921065126209,6.334764510646758 L10.241258670480908,6.304013933977631 L10.041709524516921,6.276612917240539 L9.840443201196996,6.252617080801462 L9.637327913247622,6.232085171356381 L9.43215094839856,6.215097421468665 L9.224665580300297,6.201743094557737 L9.014624964993056,6.192111485268952 L8.801795178043418,6.1862940856595685 L8.58606856249092,6.18440386393396 L8.36740883867217,6.186565928472394 L8.145780535718874,6.192905525218696 L7.92113300257835,6.203550333343884 L7.693196151089971,6.218663205526991 L7.461534825174738,6.238433453134028 L7.225709839463529,6.263051033384708 L6.985290802267264,6.292708445059412 L6.740047924740192,6.327656165429291 L6.489951107483318,6.368202386265218 L6.234978862097177,6.414657788100178 L5.9751793911738185,6.46732427608233 L5.7133964111987385,6.526151748455154 L5.456287146798551,6.590585171858501 " />
			<path d="M4.873857377270933,6.914197821593093 L4.93301114711431,6.931050329550652 L5.004379853697301,6.946604558528405 L5.174218436852321,6.976212701604612 L5.589443458596605,7.038448315139576 L5.825294998395771,7.074083645177797 L6.075768929973343,7.11408684913791 L6.3384566997932,7.159221503311125 L6.611084154673801,7.209916516356297 L6.891472926112459,7.26636928575292 L7.177923854015274,7.328779326495569 L7.4697510988893985,7.397360470086748 L7.766429665382617,7.472319549708986 L8.067670255323176,7.553797155814852 L8.37329062689101,7.641903790652296 L8.683109074351389,7.736749805802397 L8.996943891969586,7.838445552846235 L14.678173697550505,10.181762166411618 " />
			<path d="M14.67817369755057,10.18176216641164 L14.859191449831549,10.239632377033846 L15.042930176514375,10.292562765374026 L15.230156695032862,10.339541301561853 L15.324744028971452,10.360013551246723 L15.419522281377297,10.377826513538254 L15.514140887118879,10.392488741281971 L15.608249281064673,10.403508787323394 L15.701456768069042,10.410400236231046 L15.792875748971367,10.412738977145665 L15.881282993611487,10.41014298247804 L15.965448961337815,10.402231015883256 L16.044144111498767,10.388621841016397 L16.11613890344271,10.368934221532562 " />
			<path d="M0.427713370083568,11.581165717552494 L0.5833968742107967,11.315668609606824 L0.7430480742511865,11.055017609960334 L0.9066221225418545,10.79928593815762 L1.0740730694515133,10.548545431853558 L1.2453538762882186,10.302866526633327 L1.420416428513013,10.062318236226346 L1.5992115492557772,9.82696813311961 L1.781689013129533,9.596882329575884 L1.9677975603392923,9.372125459062058 L2.1574849110814274,9.15276065809298 L2.35069778022962,8.938849548495746 L2.5473818923032105,8.730452220099487 L2.7474819967136987,8.527627213855538 L2.950941883285239,8.330431505392692 L3.157704398044654,8.138920489012097 L3.3677114592765722,7.953147962126497 L3.580904073839159,7.7731661101479546 L3.797222353735915,7.599025491828435 L4.016605532938829,7.430775025057347 L4.238991984458178,7.268461973119972 L4.464319237654163,7.11213193142077 L4.692523995785566,6.96182881467513 L4.923542153790487,6.817594844573261 L5.157308816294073,6.67947053791972 L5.3937583158383084,6.547494695251814 L5.63282423132868,6.4217043899401 L5.8744394066925505,6.302134957774161 L6.118535969743995,6.188819987036336 L6.365045351249753,6.081791309066503 L6.613898304191071,5.981078989320288 L6.865024923215914,5.886711318923357 L7.118354664275933,5.7987148067242344 " />
			<path d="M7.1183546642760716,5.798714806724188 L7.292412635124497,5.742349348123504 L7.467440166987832,5.688968216306719 L7.643414375102091,5.638578390830656 L7.820312250925825,5.591186460140285 L7.9981106651484914,5.546798620707321 L8.176786370714588,5.505420676220009 L8.356316005863203,5.467058036824302 L8.53667609718255,5.431715718416491 L8.717843062679103,5.399398341987396 L8.899793214860935,5.37011013301813 L9.082502763834846,5.343854920927665 L9.26594782041687,5.320636138572109 L9.45010439925579,5.300456821795873 L9.634948421969199,5.283319609034731 L9.82045572029174,5.269226740970851 L10.0066020392351,5.25818006023983 L10.193363040259324,5.250181011189749 L10.380714304455084,5.245230639692355 L10.56863133573643,5.243329593006301 L10.757089564043643,5.2444781196924986 L10.946064348555753,5.248676069581649 L11.135530980912327,5.255922893793866 L11.325464688444065,5.266217644810432 L11.515840637411813,5.2795589765976985 L11.70663393625357,5.295945144783076 L11.897819638839046,5.315374006883111 L12.089372747731343,5.337843022583598 L12.281268217455384,5.36334925407176 L12.47348095777257,5.39188936642033 L12.665985836961328,5.423459628023608 L12.858757685103079,5.4580559110853635 L13.051771297373172,5.495673692158551 L13.245001437336423,5.536308052736729 L13.438422840246762,5.57995367989718 L13.632010216350572,5.626604866995542 L13.825738254193325,5.67625551441197 L14.019581623929046,5.728899130348658 L14.213514980632166,5.784528831678635 L14.407512967611368,5.843137344845712 L14.601550219724952,5.904717006815531 L14.795601366697328,5.969259766077471 L14.989641036436154,6.0367571836974 L15.183643858349733,6.107200434421053 L15.377584466664203,6.1805803078279276 L15.571437503740103,6.256887209535556 L15.765177623387862,6.336111162453939 L15.958779494181815,6.41824180809008 L16.15221780277226,6.503268407902311 L16.34546725719517,6.591179844704392 L16.538502590179128,6.681964624119058 L16.731298562448963,6.775610876080911 L16.923829966025814,6.8721063563884 L17.11607162752305,6.971438448304795 L17.307998411437666,7.073594164207758 L17.499585223436753,7.1785601472875165 L17.690807013638562,7.286322673293245 L17.881638779887766,7.396867652327497 L18.07205557102447,7.510180630688438 L18.262032490146588,7.626246792759719 L18.45154469786507,7.745050962947531 L18.640567415551658,7.866577607664862 L18.829075928578675,7.9908108373624955 L19.01704558955046,8.117734408606548 L19.20445182152598,8.247331726202297 L19.391270121232274,8.379585845364002 L19.57747606226824,8.514479473930411 L19.76304529829837,8.651994974625719 L19.94795356623602,8.792114367365624 L20.1321766894158,8.93481933160821 L20.31569058075467,9.080091208749366 L20.498471245901293,9.227911004562358 L20.68049478637331,9.378259391681361 L20.861737402682024,9.531116712128455 L21.04217539744421,9.686462979883924 L21.22178517848051,9.844277883499416 L21.400543261900093,10.004540788753644 L21.578426275171182,10.167230741350316 L21.755410960177,10.332326469657872 L21.931474176256742,10.499806387490782 L22.106592903231206,10.669648596931879 L22.2807442444127,10.841830891195542 L22.453905429598723,11.016330757531211 L22.626053818049208,11.19312538016689 L22.79716690144675,11.372191643292354 L22.96722230683958,11.553506134081463 L23.13619779956681,11.737045145753445 L23.30407128616559,11.922784680672493 L23.470820817259852,12.110700453485464 L23.63642459043015,12.300767894297188 L23.800860953064312,12.49296215188295 L23.964108405188544,12.68725809693779 L24.126145602278505,12.883630325362137 L24.286951358050107,13.082053161583396 L24.446504647229617,13.28250066191299 L24.604784608302683,13.484946617938526 L24.76177054624199,13.689364559950484 L24.91744193521311,13.895727760403165 L25.071778421258248,14.104009237409265 L25.224759824957516,14.314181758267779 L25.376366144067365,14.526217843024627 L25.5265775561359,14.740089768065673 L25.675374421094624,14.955769569741552 L25.822737283826385,15.173229048023938 L25.96864687670913,15.392439770192647 L26.113084122135106,15.613373074553213 L26.256030135005286,15.83600007418439 L26.39746622519856,16.06029166071512 L26.53737390001547,16.286218508130418 L26.67573486659612,16.513751076605732 L26.812531034311952,16.74285961636927 L26.9477445171311,16.973514171591777 L27.08135763595697,17.205684584303235 L27.213352920939776,17.439340498335987 L27.34371311376071,17.67445136329381 L27.472421169888463,17.910986438546374 L27.599460260807803,18.14891479724855 L27.724813776219854,18.388205330384064 L27.848465326213937,18.628826750833017 L27.970398743410502,18.870747597462643 L28.090598085075023,19.11393623924083 L28.209047635202502,19.358360879371887 L28.32573190657233,19.603989559453943 L28.440635642773223,19.850790163657486 L28.553743820198,20.098730422924497 L28.665041650007907,20.347777919187628 L28.774514580066263,20.59790008960882 L28.882148296841127,20.849064230836916 L28.987928727276774,21.10123750328352 " />
			<path d="M20.78549006551285,23.835383723871576 L20.612531143560687,23.425824602250525 L20.434694791108978,23.01898834762049 L20.252042493611963,22.615015620265893 L20.06463740159722,22.214046090430195 L19.872544308831888,21.816218390026055 L19.675829629920766,21.42167006470447 L19.47456137734399,21.03053752629952 L19.268809137942288,20.642956005665088 L19.05864404885791,20.2590595059199 L18.844138772939537,19.878980756117066 L18.625367473619708,19.50285116535409 L18.40240578927341,19.130800777339275 L18.17533080706675,18.76295822543015 L17.9442210363047,18.399450688159586 L17.709156381287123,18.04040384526483 L17.47021811368256,17.685941834234786 L17.227488844429203,17.33618720739051 L16.98105249517283,16.99126088951374 L16.73099426925161,16.65128213603814 L16.47740062223773,16.31636849181775 L16.220359232046118,15.986635750486794 L15.959958968620498,15.662197914424986 L15.696289863207358,15.343167155342154 L15.429443077228377,15.029653775495785 L15.159510870762123,14.72176616955495 L14.886586570645889,14.419610787123712 L14.610764538208691,14.123292095937064 L14.332140136646661,13.832912545742083 L14.050809698051937,13.548572532876744 L13.766870490106701,13.270370365558744 L13.480420682453637,12.998402229896225 L13.19155931275462,12.73276215663223 L12.900386252449227,12.473541988634341 L12.60700217222503,12.220831349140777 L12.311508507211524,11.974717610773869 L12.014007421909783,11.735285865331733 L11.714601774869895,11.502618894368453 L11.413395083128481,11.276797140573041 L11.110491486418557,11.05789867995706 L10.805995711164044,10.845999194860482 L10.500013034271483,10.641171947785125 L10.192649246731406,10.443487756064748 L9.884010617041989,10.253014967380569 L9.574203854467566,10.069819436130587 L9.26333607214481,9.89396450066097 L8.951514750049224,9.72551096136737 L8.63884769783484,9.564517059673648 L8.325443017559913,9.411038457895405 L8.011409066311522,9.265128219995201 L7.696854418741995,9.126836793236102 L7.381887829530136,8.996211990739972 L7.066618195780182,8.873298974956494 L6.751154519371514,8.758140242048583 L6.43560586927217,8.65077560719972 L6.12008134382914,8.551242190848182 L5.804690033048512,8.459574405852937 L5.489540980878497,8.375803945595688 L5.1747431475084,8.299959773023165 L4.860405371696504,8.232068110633396 L4.546636333139997,8.172152431409518 L4.233544514899822,8.12023345070416 L3.9212381658935858,8.076329119077322 L3.6098252634693795,8.040454616090063 L3.299413476073574,8.012622345056357 " />
			<path d="M-0.35355339059327306,11.015095655255543 L-0.35355339059327306,-6.411101482758028 " />
			<path d="M-0.3535533905932721,-6.4111014827580295 L-0.35253806597412596,-6.449875429113994 L-0.34949695175085527,-6.4877869091878955 L-0.3444446035663638,-6.524654467787526 L-0.33740520340481917,-6.560301646227581 L-0.32841244384975643,-6.594557826911412 L-0.3175093668217325,-6.627259049955678 L-0.3047481575673774,-6.65824879794926 L-0.29018989488587094,-6.687378745090378 L-0.2739042587883317,-6.714509467116321 L-0.25596919698934456,-6.739511108627875 L-0.23647055182689347,-6.762264004614411 L-0.21550164939636773,-6.782659253204874 L-0.19316285286516377,-6.8005992369033 L-0.16956108210584614,-6.8159980898140855 L-0.14480930194704214,-6.828782108620737 L-0.1190259814914498,-6.838890105351028 " />
			<path d="M-0.11902598149144633,-6.8388901053510285 L-0.09672699083793154,-6.845261224514106 L-0.07386575249620059,-6.849699569865027 L-0.026765230751215494,-6.8527248643324805 L0.021643469639833407,-6.847925387689325 L0.07071067811865622,-6.835365551469958 " />
			<path d="M29.344931419241718,2.9227080289043963 L29.386516570001444,2.9392936757629906 L29.4277012330266,2.96116745365307 L29.468088777498426,2.988118706136129 L29.507290249285578,3.0198878779177036 L29.54492811678504,3.056169014506741 L29.58063990675785,3.096612708724601 L29.61408169514451,3.140829465687195 L29.64493141924172,3.1883934538536347 L29.672891979342246,3.238846606016756 L29.697694099967524,3.2917030307407296 L29.719098923137718,3.346453691761203 L29.73690030870463,3.4025713102827932 L29.750926819594024,3.459515442962127 L29.761043372838362,3.516737686672672 L29.767152540499634,3.5736869599266363 L29.769195487953645,3.6298148100909415 " />
			<path d="M29.76919548795365,21.05601194810461 L29.76919548795365,3.6298148100909486 " />
			<path d="M29.769195487953645,21.056011948104608 L29.7681801633345,21.09478589446057 L29.76513904911123,21.132697374534473 L29.76008670092674,21.169564933134104 L29.753047300765193,21.20521211157416 L29.74405454121013,21.23946829225799 L29.733151464182107,21.272169515302256 L29.72039025492775,21.30315926329584 L29.705831992246246,21.332289210436954 L29.689546356148707,21.3594199324629 L29.67161129434972,21.384421573974453 L29.652112649187266,21.40717446996099 L29.63114374675674,21.427569718551453 L29.608804950225537,21.44550970224988 L29.58520317946622,21.460908555160664 L29.560451399307418,21.473692573967316 L29.534668078851823,21.483800570697607 " />
			<path d="M29.53466807885182,21.483800570697607 L29.49921004302916,21.4929755479053 L29.46246189447784,21.497313939359717 L29.424730929523424,21.496779466450768 L29.386332663024387,21.491376598561747 L29.34758818996559,21.481150515695322 L29.308821500389406,21.46618673066815 L29.270356770117747,21.446610374033373 L29.23251564992056,21.422585147710645 L29.195614575799375,21.394311956073665 L29.15996212287793,21.3620272259424 L29.12585642502721,21.326000929528558 L29.093582681802655,21.286534326866928 L29.06341077354098,21.24395744661087 L29.035593004559782,21.198626326258104 L29.01036199333183,21.15092003488466 L28.987928727276792,21.101237503283592 " />
			<path d="M0.42771337008355376,11.58116571755248 L0.41155437759935576,11.606981224694948 L0.39386397900740666,11.630772802251885 L0.3747216570280664,11.65243355498879 L0.3542134178537344,11.67186616143811 L0.33243140472419663,11.68898331116327 L0.3094734839283022,11.703708097043272 L0.28544280509205744,11.715974360815355 L0.26044733772876083,11.725726990323157 " />
			<path d="M0.26044733772875917,11.725726990323157 L0.23595472515263688,11.732613446521345 L0.21079442848206187,11.737172130957441 L0.1850681102591963,11.739384623838756 L0.15887972008945467,11.739241985379968 L0.13233507462335775,11.736744791925169 L0.10554142999441649,11.731903133619092 L0.07860704844064975,11.724736573636928 L0.05164076086084132,11.715274069137486 L0.024751527073070267,11.70355385425907 L-0.0019520044476691312,11.689623285630846 L-0.05437155449786649,11.655364941915426 L-0.10477152064795658,11.61305217489936 L-0.15233814255745443,11.563368168606848 L-0.19630340720179684,11.507115123455183 L-0.23595744924853546,11.445201303887236 L-0.27066001257802424,11.378626373488938 L-0.29985078789032027,11.308465254371688 L-0.32305845948678924,11.235850771426913 L-0.3399083151566337,11.161955361679453 L-0.35012829629873915,11.087972144061522 L-0.3535533905932722,11.015095655255545 " />
			<path d="M-4.454772721475249,4.077649104842425 L-4.538708625601845,4.103567409805047 L-4.622530777203989,4.125329929989412 L-4.7061255779181534,4.142907172157372 L-4.789379737493741,4.1562753150885525 L-4.872180427327527,4.165416241863602 L-4.954415433372457,4.170317564416802 L-5.0359733082135865,4.170972640324754 L-5.1167435221050495,4.167380581808395 L-5.196616612763374,4.159546256936148 L-5.275484333714147,4.147480283026555 L-5.3532398009909725,4.1311990122593745 L-5.4297776379879155,4.1107245095145934 L-5.50499411826913,4.086084522469422 L-5.578787306142122,4.057312443993789 L-5.6510571948041335,4.0244472668952955 L-5.721705841874453,3.9875335310749587 L-5.790637502128946,3.946621263165366 L-5.857758757256933,3.901765908733039 L-5.922978642464569,3.8530282571368963 L-5.986208769753128,3.8004743591446326 L-6.0473634477051466,3.7441754374186944 L-6.106359797616076,3.6842077899931223 L-6.163117865814053,3.6206526868721083 L-6.217560732015583,3.5535962598903823 L-6.269614613570285,3.483129385984689 L-6.319208965453402,3.4093475640345643 L-6.366276575870602,3.332350785439316 L-6.410753657345465,3.252243398606593 L-6.452579933166248,3.169133967536203 L-6.4916987190747335,3.083135124690843 L-6.5280570000864895,2.9943634183531027 L-6.561605502338407,2.9029391546756464 L-6.592298759866157,2.808986234638608 L-6.620095176221071,2.712631986135165 L-6.644957080842928,2.6140069914128423 L-6.666850780112258,2.5132449101044325 L-6.6857466030129755,2.410482298088348 L-6.701618941343454,2.305858422423875 L-6.714446284421549,2.1995150726121686 L-6.724211248236541,2.091596368438748 L-6.730900599008479,1.982248564657917 L-6.734505271123011,1.871619852783818 L-6.735020379417376,1.7598601602567268 L-6.732445225800938,1.6471209472567596 L-6.726783300201253,1.5335550014403676 L-6.718042275834414,1.4193162308778018 L-6.706233998806066,1.304559455472142 L-6.691374472057213,1.1894401971425974 L-6.673483833676521,1.0741144690564148 L-6.652586329608573,0.9587385641950189 L-6.628710280795014,0.8434688435409412 L-6.601888044793132,0.7284615241726029 L-6.572155971923907,0.61387246755412 L-6.539554356008934,0.4998569683070344 L-6.504127379762989,0.3865695437502602 L-6.465923054916257,0.27416372449345183 L-6.424993157147354,0.16279184636758148 L-6.38139315591533,0.052604843974731974 L-6.335182139285751,-0.05624795386312442 L-6.28642273385273,-0.16361902647915483 L-6.235181019865437,-0.26936286128621467 L-6.1815264416741025,-0.37333615098000883 L-6.125531713616906,-0.4753979877535397 L-6.06727272147525,-0.5754100542597291 L-6.006828419631022,-0.6732368110633453 L-5.944280724065173,-0.7687456803282249 L-5.879714401342661,-0.8618072254908413 L-5.81321695373419,-0.952295326676722 L-5.744878500630426,-1.0400873516220024 L-5.674791656409428,-1.1250643218684404 L-5.603051404922797,-1.2071110740066837 L-5.529754970770618,-1.286116415749282 L-5.455001687539694,-1.3619732766219004 L-5.378892863183599,-1.4345788530685257 L-5.301531642727029,-1.5038347477740142 L-5.223022868480473,-1.569647103015165 L-5.143472937954689,-1.6319267278596028 L-5.062989659667519,-1.6905892190400729 L-4.9816821070384565,-1.7455550753403566 L-4.899660470568996,-1.7967498053377642 L-4.817035908509056,-1.8441040283562158 L-4.733920396211896,-1.8875535684930655 L-4.6504265743816795,-1.9270395415922579 L-4.566667596419307,-1.9625084350459625 L-4.48275697507344,-1.993912180316502 L-4.39880842860453,-2.0212082180803175 L-4.314935726670324,-2.0443595559056793 L-4.231252536141715,-2.063334818385964 L-4.147872267057899,-2.07810828966058 L-4.0649079189295945,-2.088659948265887 L-3.982471927598621,-2.094975494268908 L-3.9006760128613815,-2.0970463686470318 L-3.8196310270627456,-2.0948697648874712 L-3.739446804865538,-2.088448632790731 L-3.6602320143992246,-2.07779167447295 L-3.582094009989509,-2.0629133325725206 L-3.5051386866684373,-2.0438337706769887 L-3.429470336662191,-2.020578845996729 L-3.355191508051048,-1.9931800743224612 L-3.2824028657930633,-1.9616745873140817 L-3.2112030552998077,-1.926105082178685 L-3.141688568749072,-1.8865197638059983 L-3.073953614315699,-1.8429722794396328 L-3.008089988497752,-1.7955216459726788 L-2.944186951711073,-1.7442321699661951 L-2.8823311073208187,-1.6891733604989772 L-2.822606284273907,-1.6304198349667098 L-2.7650934234914484,-1.5680512179581707 L-2.709870468175111,-1.5021520333455376 L-2.6570122581760938,-1.432811589735027 L-2.606590428569851,-1.3601238594331226 L-2.558673312574035,-1.2841873510924078 L-2.5133258489412045,-1.2051049762095967 L-2.470609493951832,-1.1229839096567065 L-2.4305821381268586,-1.0379354444343756 L-2.3932980277726754,-0.9500748408441477 L-2.3588076914648526,-0.8595211702841627 L-2.327157871570261,-0.7663971538799255 L-2.2983914609003735,-0.6708289961688569 L-2.272547444581606,-0.5729462140640142 L-2.249660847221471,-0.4728814613287753 L-2.2297626854421524,-0.37077034880037285 L-2.2128799258458196,-0.2667512606059077 L-2.1990354484686616,-0.16096516661991722 L-2.1882480157731496,-0.05355543141764274 L-2.1805322472205786,0.05533238001705165 L-2.175898599458316,0.16555069956582336 L-2.174353352148634,0.2769501559646731 " />
			<path d="M-2.174353352148634,0.27695015596472516 L-2.1781821217634914,0.4543462772621347 L-2.1896555737827277,0.6336992239409877 L-2.2087351809029356,0.8144067373800767 L-2.2353568747154813,0.9958620103877579 L-2.269431260845158,1.177455724831505 L-2.3108439191322225,1.3585780976990671 L-2.3594557878498272,1.538620928720675 L-2.415103630666645,1.716979642676471 L-2.477600584786668,1.893055319531198 L-2.546736788425549,2.066256705579047 L-2.622280085516434,2.236002198845336 L-2.7039768052789417,2.4017218020781392 L-2.791552614033514,2.562859036771812 L-2.8847134364008005,2.7188728117952077 L-2.9831464427927235,2.869239240349832 L-3.086521099879267,3.013453399156653 " />
			<path d="M-3.086521099879283,3.0134533991566745 L-3.1609804013143687,3.109658965263807 L-3.2375321988661048,3.2025124921315227 L-3.3160526826025523,3.2918638044640156 L-3.3964148585659215,3.37756839122102 L-3.478488754164392,3.4594876393406313 L-3.5621416283813843,3.5374890579231115 L-3.6472381864623107,3.6114464925131196 L-3.7336407987315687,3.681240329133773 L-3.82120972318588,3.746757687742562 L-3.9098033315039857,3.8078926047962462 L-3.999278338107147,3.8645462046294408 L-4.089490031899977,3.91662685936973 L-4.18029251031682,3.9640503371306677 L-4.271538915295133,4.006739938242989 L-4.363081670794233,4.044626619303701 L-4.454772721475228,4.0776491048424175 " />
			<path d="M-8.555992052357226,13.749241875843524 L-8.555992052357226,-3.676955262170047 " />
			<path d="M-8.321464643255398,-4.104743884763046 L-8.347247963710993,-4.094635888032754 L-8.371999743869797,-4.081851869226103 L-8.395601514629115,-4.066453016315316 L-8.417940311160319,-4.04851303261689 L-8.438909213590845,-4.028117784026428 L-8.458407858753295,-4.005364888039892 L-8.476342920552282,-3.9803632465283387 L-8.492628556649821,-3.9532325245023943 L-8.507186819331329,-3.924102577361277 L-8.519948028585684,-3.8931128293676953 L-8.530851105613708,-3.860411606323429 L-8.53984386516877,-3.8261554256395973 L-8.546883265330315,-3.790508247199543 L-8.551935613514807,-3.753640688599912 L-8.554976727738078,-3.715729208526011 L-8.555992052357222,-3.676955262170052 " />
			<path d="M-8.555992052357222,13.749241875843524 L-8.552566958062691,13.822118364649507 L-8.542346976920586,13.896101582267438 L-8.52549712125074,13.969996992014895 L-8.502289449654272,14.042611474959672 L-8.473098674341976,14.11277259407692 L-8.438396111012487,14.17934752447522 L-8.398742068965747,14.241261344043167 L-8.354776804321405,14.297514389194832 L-8.307210182411907,14.347198395487345 L-8.256810216261817,14.38951116250341 L-8.20439066621162,14.42376950621883 L-8.177687134690881,14.437700074847054 L-8.15079790090311,14.44942028972547 L-8.123831613323302,14.458882794224913 L-8.096897231769535,14.466049354207076 L-8.070103587140594,14.470891012513153 L-8.043558941674497,14.473388205967952 L-8.017370551504754,14.47353084442674 L-7.99164423328189,14.471318351545426 L-7.966483936611314,14.46675966710933 L-7.941991324035196,14.459873210911143 " />
			<path d="M20.78549006551284,23.835383723871573 L20.80792333156788,23.885066255472644 L20.833154342795833,23.93277254684609 L20.860972111777027,23.978103667198855 L20.89114402003871,24.020680547454912 L20.923417763263263,24.060147150116542 L20.95752346111398,24.096173446530386 L20.993175914035426,24.12845817666165 L21.030076988156612,24.15673136829863 L21.067918108353798,24.180756594621357 L21.106382838625457,24.200332951256133 L21.145149528201642,24.215296736283307 L21.183894001260438,24.22552281914973 L21.222292267759475,24.230925687038752 L21.26002323271389,24.2314601599477 L21.29677138126521,24.227121768493284 L21.332229417087866,24.21794679128559 " />
			<path d="M-4.030508652763319,3.6533850361304956 L-4.138023686482552,3.685068126857991 L-4.19166834819244,3.6977588843632225 L-4.24517768985817,3.708334319590227 L-4.298506781595396,3.7167855527235 L-4.3516108448691995,3.72310548756422 L-4.404445290093034,3.7272888174886725 L-4.45696575406901,3.72933202990403 L-4.509128137238076,3.729233409197753 L-4.560888640708861,3.72699303817813 L-4.612203803034033,3.7226127980047425 L-4.663030536703319,3.7160963666089253 L-4.71332616432256,3.707449215605537 L-4.763048454448393,3.6966786056986423 L-4.812155657048477,3.683793580584957 L-4.860606538557504,3.668804959360183 " />
			<path d="M-4.860606538557519,3.668804959360178 L-4.941068594740143,3.638651309774527 L-5.019337032266912,3.602570967427279 L-5.095223295616321,3.5606508530234118 L-5.168544568133108,3.512991955790293 L-5.239124212449596,3.4597090901857834 L-5.306792196020579,3.400930619300153 L-5.371385500746621,3.336798145618151 L-5.43274851569893,3.267466169886218 L-5.49073341199972,3.1931017189066564 L-5.5452004989549275,3.1138839431554333 L-5.596018560581323,3.03000368519299 L-5.643065171717311,2.941663019907801 L-5.68622699295587,2.8490747677002677 L-5.725400043689106,2.75246198177973 L-5.760489952606649,2.6520574108097517 L-5.791412185044404,2.548102938196201 L-5.8180922466359615,2.44084899936894 L-5.840465862776048,2.33055397846094 L-5.858479133463687,2.217483585838271 L-5.872088663152014,2.101910217980557 L-5.881261665291957,1.9841123012539992 L-5.8859760413179,1.8643736211578714 L-5.886220433885065,1.7429826386603935 L-5.881994254230354,1.620231795270997 L-5.873307683590723,1.4964168085231109 L-5.860181648675697,1.371835959564723 L-5.842647771253091,1.246789374572968 L-5.820748291969403,1.1215783017238774 L-5.794535968588395,0.9965043854591398 L-5.76407394889302,0.8718689397982187 L-5.729435618556882,0.747972222446486 L-5.690704424351719,0.6251127114481131 L-5.647973673116826,0.5035863861263176 L-5.601346306974697,0.3836860140432482 L-5.550934655334444,0.26570044569728635 L-5.496860164280408,0.1499139186568914 L-5.439253103997904,0.036605372807406056 L-5.378252254940936,-0.07395222163956139 L-5.3140045734979235,-0.1814925217552874 L-5.246664837960896,-0.28575645353737467 L-5.176395275651028,-0.38649283604171925 L-5.103365172098808,-0.48345898649940144 L-5.027750463220378,-0.5764213049607383 L-4.949733311472489,-0.6651558370580186 L-4.869501667007199,-0.749448813531193 L-4.787248814883487,-0.829097165216746 L-4.703172909426616,-0.9039090122590938 L-4.617476496857015,-0.9737041263659685 L-4.5303660273386805,-1.0383143649941555 L-4.442051357622658,-1.0975840764196128 L-4.352745245483747,-1.151370474716101 L-4.26266283716838,-1.1995439837389932 L-4.172021149088476,-1.241988549285551 L-4.0810385450098945,-1.2786019186796684 L-3.989934209994995,-1.3092958871075226 L-3.898927622366625,-1.333996510110698 L-3.808238024965618,-1.3526442817248587 L-3.7180838969755836,-1.3651942778348358 L-3.6286824275874188,-1.3716162644007497 L-3.5402489927715233,-1.3718947702944648 L-3.4529966364182227,-1.366029124570887 L-3.3671355570963746,-1.3540334580843356 L-3.282872601666609,-1.335936669446073 L-3.200410766969128,-1.3117823554050223 " />
			<path d="M-3.200410766969121,-1.3117823554050196 L-3.1462433031897317,-1.2922288192107643 L-3.0930331077827207,-1.2700005639680687 L-3.0408377838614244,-1.2451216530485536 L-2.989713835882113,-1.2176190193118779 L-2.9397166084746473,-1.1875224359493655 L-2.89090022652872,-1.1548644842528022 L-2.84331753660053,-1.1196805183432996 L-2.7970200497033293,-1.082008626898423 L-2.752057885543775,-1.0418895919189866 L-2.7084797182644467,-0.9993668445801869 L-2.6663327237512737,-0.9544864182148389 L-2.62566252856291,-0.9072968984796317 L-2.586513160537347,-0.8578493707583514 L-2.5489270011292335,-0.8061973648589951 L-2.5129447395294973,-0.7523967970646559 L-2.478605328616946,-0.6965059096009167 L-2.4459459427895243,-0.6385852075852745 L-2.415001937720875,-0.5786973935268467 L-2.3858068120857805,-0.5169072994472863 L-2.35839217129591,-0.4532818166963626 L-2.3327876932851344,-0.3878898235382131 L-2.309021096381445,-0.3208021105866363 L-2.2871181093002613,-0.25209130417016046 L-2.26710244329161,-0.1818317877098412 L-2.2489957664713254,-0.11009962119491035 L-2.232817680364058,-0.036972458843435696 L-2.218585698683497,0.037470534962855684 L-2.2063152283727554,0.11314877137860013 L-2.19601955292547,0.18998032433688605 L-2.187709818005645,0.2678820192389537 L-2.1813950193818306,0.3467695229955099 L-2.1770819931886827,0.42655743532215196 " />
			<path d="M-2.9989396450968506,2.8921303910466842 L-3.0564581565408346,2.960552752138869 L-3.115297731493582,3.026558205750341 L-3.1753785683271043,3.0900572314748347 L-3.236619181942401,3.1509637082682644 L-3.298936514284253,3.2091950312510567 L-3.3622460469893514,3.264672223741655 L-3.426461916014982,3.317320044369256 L-3.4914970280927964,3.367067089120498 L-3.557263178849727,3.413845888181706 L-3.623671172435853,3.4575929974453494 L-3.690630942496959,3.4982490845566003 L-3.7580516743277235,3.5357590093832982 L-3.8258419280398623,3.5700718988001827 L-3.8939097625781907,3.60114121568596 L-3.9621628604163788,3.6289248220396337 L-4.030508652763303,3.65338503613049 " />
			<path d="M20.785490065512843,23.83538372387157 L28.9879287272768,21.101237503283585 " />
			<path d="M-0.35355339059327306,-6.411101482758031 L-8.555992052357224,-3.676955262170047 " />
			<path d="M-0.35355339059327484,11.015095655255537 L-8.555992052357226,13.749241875843522 " />
			<path d="M-8.321464643255398,-4.104743884763046 L-0.11902598149144694,-6.83889010535103 " />
			<path d="M-7.941991324035191,14.459873210911141 L0.2604473377287633,11.725726990323157 " />
			<path d="M21.332229417087873,24.21794679128559 L29.534668078851826,21.483800570697607 " />
			<path d="M4.8740341996941225,6.913685205444061 L4.855821083078013,6.907614166572024 " />

       </g>
    </g>
    
</g></svg>
